<svg xmlns="http://www.w3.org/2000/svg" width="20" height="20" viewBox="0 0 20 20" fill="none"><path d="M14.1667 17.8333H5.83337C5.80323 17.8333 5.77195 17.821 5.7463 17.7954C5.72066 17.7698 5.70837 17.7385 5.70837 17.7083C5.70837 17.6782 5.72066 17.6469 5.7463 17.6213C5.77195 17.5956 5.80323 17.5833 5.83337 17.5833H14.1667C14.1969 17.5833 14.2281 17.5956 14.2538 17.6213C14.2794 17.6469 14.2917 17.6782 14.2917 17.7083C14.2917 17.7385 14.2794 17.7698 14.2538 17.7954C14.2281 17.821 14.1969 17.8333 14.1667 17.8333Z" fill="#D6AD61" stroke="#D6AD61"></path><path d="M16.9584 4.6L13.6251 6.98333C13.1834 7.3 12.5501 7.10833 12.3584 6.6L10.7834 2.4C10.5167 1.675 9.49173 1.675 9.22506 2.4L7.64173 6.59166C7.45006 7.10833 6.82506 7.3 6.38339 6.975L3.05006 4.59166C2.38339 4.125 1.50006 4.78333 1.77506 5.55833L5.24173 15.2667C5.35839 15.6 5.67506 15.8167 6.02506 15.8167H13.9667C14.3167 15.8167 14.6334 15.5917 14.7501 15.2667L18.2167 5.55833C18.5001 4.78333 17.6167 4.125 16.9584 4.6ZM12.0834 12.2917H7.91673C7.57506 12.2917 7.29173 12.0083 7.29173 11.6667C7.29173 11.325 7.57506 11.0417 7.91673 11.0417H12.0834C12.4251 11.0417 12.7084 11.325 12.7084 11.6667C12.7084 12.0083 12.4251 12.2917 12.0834 12.2917Z" fill="#D6AD61"></path></svg>