<svg xmlns="http://www.w3.org/2000/svg" width="16" height="16" viewBox="0 0 16 16" fill="none"><path d="M11.3334 14.6667H4.66675C4.39341 14.6667 4.16675 14.44 4.16675 14.1667C4.16675 13.8933 4.39341 13.6667 4.66675 13.6667H11.3334C11.6067 13.6667 11.8334 13.8933 11.8334 14.1667C11.8334 14.44 11.6067 14.6667 11.3334 14.6667Z" fill="#27292F"></path><path d="M13.5666 3.68L10.8999 5.58667C10.5466 5.84 10.0399 5.68667 9.88657 5.28L8.62657 1.92C8.41323 1.34 7.59324 1.34 7.3799 1.92L6.11323 5.27333C5.9599 5.68667 5.4599 5.84 5.10657 5.58L2.4399 3.67333C1.90657 3.3 1.1999 3.82667 1.4199 4.44667L4.19324 12.2133C4.28657 12.48 4.5399 12.6533 4.8199 12.6533H11.1732C11.4532 12.6533 11.7066 12.4733 11.7999 12.2133L14.5732 4.44667C14.7999 3.82667 14.0932 3.3 13.5666 3.68ZM9.66657 9.83333H6.33324C6.0599 9.83333 5.83324 9.60667 5.83324 9.33333C5.83324 9.06 6.0599 8.83333 6.33324 8.83333H9.66657C9.9399 8.83333 10.1666 9.06 10.1666 9.33333C10.1666 9.60667 9.9399 9.83333 9.66657 9.83333Z" fill="#27292F"></path></svg>