<svg xmlns="http://www.w3.org/2000/svg" width="605" height="345" viewBox="0 0 605 345" fill="none"><path d="M548.038 145.531L546.907 145.907C542.511 136.338 536.23 128.72 528.065 123.054C520.026 117.388 509.914 114.555 497.73 114.555C490.947 114.555 484.478 116.003 478.323 118.899C472.168 121.669 466.766 125.635 462.119 130.797C457.597 135.834 453.954 141.941 451.19 149.118C448.427 156.294 447.045 164.227 447.045 172.915C447.045 181.602 448.427 189.535 451.19 196.712C453.954 203.889 457.597 210.058 462.119 215.221C466.766 220.257 472.168 224.16 478.323 226.93C484.478 229.7 490.947 231.085 497.73 231.085C509.789 231.085 519.586 229.197 527.123 225.419C534.786 221.516 541.255 215.598 546.53 207.666L547.661 208.043L547.285 220.13C544.396 223.152 541.068 225.859 537.299 228.251C533.531 230.517 529.449 232.469 525.052 234.106C520.781 235.617 516.322 236.75 511.674 237.506C507.027 238.388 502.379 238.829 497.731 238.829C488.059 238.829 478.827 237.255 470.034 234.107C461.241 230.959 453.516 226.552 446.858 220.886C440.201 215.095 434.925 208.17 431.031 200.111C427.137 191.927 425.19 182.861 425.19 172.914C425.19 162.967 427.137 153.965 431.031 145.907C434.925 137.722 440.201 130.734 446.858 124.943C453.516 119.151 461.241 114.744 470.034 111.722C478.827 108.574 488.059 107 497.731 107C502.379 107 507.027 107.378 511.674 108.133C516.322 108.889 520.781 110.085 525.052 111.722C529.449 113.233 533.531 115.185 537.299 117.577C541.068 119.843 544.396 122.487 547.285 125.509L548.038 145.531ZM132.836 181.604C131.455 182.233 130.136 183.052 128.879 184.061C127.623 185.067 126.994 186.452 126.994 188.216V211.446C120.965 220.134 113.24 226.87 103.819 231.655C94.3978 236.44 83.9719 238.832 72.541 238.832C62.869 238.832 53.6365 237.258 44.8436 234.11C36.0508 230.962 28.3256 226.555 21.668 220.89C15.0106 215.098 9.73486 208.173 5.84078 200.114C1.94693 191.93 0 182.865 0 172.918C0 162.971 1.94693 153.968 5.84078 145.91C9.73486 137.726 15.0106 130.737 21.668 124.946C28.3256 119.154 36.0508 114.747 44.8436 111.725C53.6364 108.577 62.8689 107.003 72.541 107.003C77.1887 107.003 81.8365 107.381 86.4842 108.136C91.1317 108.892 95.591 110.088 99.862 111.725C104.258 113.236 108.341 115.188 112.109 117.58C115.877 119.846 119.206 122.49 122.095 125.512L122.85 145.532L121.72 145.908C117.323 136.339 111.043 128.721 102.878 123.055C94.8387 117.389 84.7269 114.556 72.5424 114.556C65.7594 114.556 59.2904 116.004 53.1356 118.9C46.9805 121.67 41.5791 125.637 36.9313 130.799C32.4092 135.835 28.7665 141.942 26.0033 149.119C23.2396 156.296 21.8578 164.228 21.8578 172.916C21.8578 181.478 23.1767 189.347 25.8147 196.524C28.5783 203.701 32.2211 209.871 36.7431 215.033C41.3906 220.07 46.7919 224.036 52.947 226.932C59.1021 229.702 65.6339 231.087 72.5424 231.087C85.6063 231.087 96.7858 228.568 106.081 223.532V188.214C106.081 186.452 105.391 185.067 104.01 184.059C102.753 183.052 101.497 182.234 100.241 181.603L100.413 180.659C101.041 180.775 102.171 180.9 103.805 181.036C105.439 181.151 107.134 181.276 108.892 181.412H125.097C126.605 181.297 128.049 181.172 129.431 181.036C130.812 180.921 131.879 180.795 132.633 180.659L132.836 181.604ZM269.31 110.968C268.053 111.597 266.797 112.416 265.542 113.425C264.285 114.431 263.595 116.32 263.471 119.09C263.356 122.112 263.23 125.953 263.095 130.611C263.095 135.144 263.037 140.306 262.923 146.098C262.923 151.89 262.865 158.186 262.75 164.985V186.138C262.635 194.322 261.63 201.31 259.734 207.102C257.85 212.894 255.338 217.741 252.198 221.645C249.183 225.548 245.792 228.633 242.023 230.899C238.38 233.166 234.737 234.865 231.095 235.999C227.577 237.258 224.249 238.014 221.109 238.265C217.968 238.643 215.519 238.832 213.76 238.832C206.6 238.832 199.692 237.887 193.034 235.999C186.377 234.237 180.536 231.341 175.511 227.311C170.487 223.282 166.467 218.056 163.453 211.635C160.438 205.213 158.93 197.407 158.93 188.215V166.874V147.231C158.93 141.188 158.873 135.773 158.758 130.989C158.758 126.078 158.701 122.112 158.586 119.09C158.471 116.32 157.78 114.432 156.514 113.424C155.257 112.418 154.001 111.599 152.746 110.968L152.918 110.025C153.546 110.14 154.551 110.265 155.934 110.401C157.442 110.516 158.949 110.642 160.456 110.778C162.09 110.778 163.66 110.835 165.167 110.95H171.95C173.457 110.835 175.027 110.778 176.66 110.778C178.294 110.662 179.801 110.537 181.182 110.401C182.69 110.286 183.757 110.161 184.384 110.025L184.557 110.968C183.176 111.597 181.857 112.416 180.6 113.424C179.469 114.431 178.841 116.32 178.714 119.09C178.6 122.112 178.474 126.078 178.339 130.989V188.215C178.339 201.94 181.542 212.075 187.948 218.623C194.354 225.17 203.838 228.444 216.399 228.444C220.042 228.444 224.187 228.003 228.835 227.12C233.483 226.114 237.817 224.099 241.836 221.077C245.981 218.055 249.436 213.774 252.199 208.234C255.088 202.694 256.533 195.328 256.533 186.137C256.533 176.19 256.475 167.691 256.36 160.64C256.36 153.463 256.303 147.356 256.188 142.32C256.188 137.158 256.131 132.751 256.016 129.099C255.901 125.448 255.776 122.111 255.64 119.089C255.525 116.319 254.835 114.431 253.568 113.423C252.312 112.417 251.055 111.598 249.8 110.967L249.973 110.024C251.354 110.275 252.924 110.527 254.683 110.78C256.441 110.896 258.074 110.953 259.582 110.953C260.963 110.953 262.533 110.896 264.292 110.78C266.176 110.529 267.809 110.277 269.191 110.024L269.31 110.968ZM406.033 145.531L404.902 145.907C400.506 136.338 394.225 128.72 386.061 123.054C378.021 117.388 367.91 114.555 355.725 114.555C348.942 114.555 342.473 116.003 336.318 118.899C330.163 121.669 324.762 125.635 320.114 130.797C315.592 135.834 311.949 141.941 309.186 149.118C306.422 156.295 305.041 164.227 305.041 172.915C305.041 181.602 306.422 189.535 309.186 196.712C311.949 203.889 315.592 210.058 320.114 215.221C324.762 220.257 330.163 224.16 336.318 226.93C342.473 229.7 348.942 231.085 355.725 231.085C367.784 231.085 377.582 229.197 385.119 225.419C392.781 221.516 399.25 215.598 404.526 207.666L405.656 208.043L405.281 220.13C402.391 223.152 399.062 225.859 395.294 228.251C391.526 230.517 387.443 232.469 383.047 234.106C378.776 235.617 374.317 236.75 369.669 237.505C365.021 238.388 360.374 238.829 355.726 238.829C346.054 238.829 336.821 237.255 328.029 234.107C319.236 230.959 311.511 226.552 304.853 220.886C298.196 215.094 292.92 208.169 289.026 200.111C285.132 191.927 283.185 182.861 283.185 172.914C283.185 162.967 285.132 153.965 289.026 145.907C292.92 137.722 298.196 130.734 304.853 124.942C311.511 119.151 319.236 114.744 328.029 111.722C336.822 108.574 346.054 107 355.726 107C360.374 107 365.021 107.378 369.669 108.133C374.317 108.889 378.776 110.085 383.047 111.722C387.443 113.233 391.526 115.184 395.294 117.577C399.062 119.843 402.391 122.487 405.28 125.509L406.033 145.531ZM604.828 235.62C604.2 235.504 603.133 235.379 601.626 235.243C600.245 235.243 598.737 235.186 597.104 235.071C595.47 235.071 593.9 235.013 592.393 234.898H581.089C579.582 235.013 578.074 235.138 576.567 235.274C575.186 235.389 574.119 235.515 573.365 235.651L573.193 234.894C574.449 234.265 575.705 233.446 576.961 232.437C578.218 231.431 578.908 229.542 579.032 226.771C579.147 223.75 579.205 220.602 579.205 217.328C579.319 214.054 579.377 210.34 579.377 206.185V192.02V172.945V153.869V139.515C579.377 135.36 579.319 131.709 579.205 128.561C579.205 125.287 579.147 122.14 579.032 119.118C578.917 116.348 578.227 114.459 576.961 113.452C575.704 112.319 574.448 111.438 573.192 110.809L573.365 110.052C574.118 110.303 575.186 110.492 576.567 110.619C578.074 110.619 579.582 110.676 581.089 110.792C582.723 110.907 584.293 110.964 585.8 110.964H592.393C593.9 110.849 595.471 110.792 597.104 110.792C598.737 110.676 600.245 110.551 601.626 110.415C603.133 110.3 604.2 110.175 604.828 110.039L605 110.796C603.619 111.424 602.3 112.305 601.043 113.439C599.913 114.445 599.284 116.334 599.158 119.104C599.043 122.126 598.918 125.274 598.782 128.548V217.315C598.897 220.588 599.022 223.736 599.158 226.758C599.273 229.528 599.901 231.417 601.043 232.424C602.3 233.431 603.619 234.249 605 234.88L604.828 235.62Z" fill="black"></path></svg>