<svg xmlns="http://www.w3.org/2000/svg" width="605" height="147" viewBox="0 0 605 147" fill="none"><path d="M548.038 46.1146L546.907 46.4911C542.511 36.9218 536.23 29.3042 528.065 23.6383C520.026 17.9722 509.914 15.1392 497.73 15.1392C490.947 15.1392 484.478 16.5871 478.323 19.4829C472.168 22.2532 466.766 26.2194 462.119 31.3816C457.597 36.418 453.954 42.5246 451.19 49.7016C448.427 56.8786 447.045 64.811 447.045 73.4987C447.045 82.1865 448.427 90.1189 451.19 97.2959C453.954 104.473 457.597 110.642 462.119 115.805C466.766 120.841 472.168 124.744 478.323 127.515C484.478 130.284 490.947 131.669 497.73 131.669C509.789 131.669 519.586 129.781 527.123 126.003C534.786 122.1 541.255 116.183 546.53 108.25L547.661 108.627L547.285 120.714C544.396 123.736 541.068 126.443 537.299 128.835C533.531 131.102 529.449 133.053 525.052 134.69C520.781 136.201 516.322 137.334 511.674 138.09C507.027 138.972 502.379 139.413 497.731 139.413C488.059 139.413 478.827 137.839 470.034 134.691C461.241 131.543 453.516 127.136 446.858 121.47C440.201 115.679 434.925 108.754 431.031 100.695C427.137 92.5111 425.19 83.4456 425.19 73.4986C425.19 63.5516 427.137 54.549 431.031 46.4909C434.925 38.3065 440.201 31.3185 446.858 25.5268C453.516 19.7348 461.241 15.3279 470.034 12.3061C478.827 9.1582 488.059 7.58427 497.731 7.58427C502.379 7.58427 507.027 7.962 511.674 8.71746C516.322 9.47292 520.781 10.6691 525.052 12.3061C529.449 13.817 533.531 15.7686 537.299 18.161C541.068 20.4274 544.396 23.0715 547.285 26.0933L548.038 46.1146ZM132.836 82.1883C131.455 82.8171 130.136 83.6359 128.879 84.6447C127.623 85.6512 126.994 87.0363 126.994 88.7999V112.03C120.965 120.718 113.24 127.454 103.819 132.239C94.3978 137.024 83.9719 139.416 72.541 139.416C62.869 139.416 53.6365 137.842 44.8436 134.694C36.0508 131.546 28.3256 127.14 21.668 121.474C15.0106 115.682 9.73486 108.757 5.84078 100.699C1.94693 92.5144 0 83.4488 0 73.5017C0 63.5547 1.94693 54.5521 5.84078 46.494C9.73486 38.3096 15.0106 31.3216 21.668 25.5298C28.3256 19.7379 36.0508 15.331 44.8436 12.3093C53.6364 9.16135 62.8689 7.58737 72.541 7.58737C77.1887 7.58737 81.8365 7.96509 86.4842 8.72055C91.1317 9.47601 95.591 10.6722 99.862 12.3091C104.258 13.8201 108.341 15.7717 112.109 18.1641C115.877 20.4305 119.206 23.0746 122.095 26.0964L122.85 46.1161L121.72 46.4925C117.323 36.9232 111.043 29.3055 102.878 23.6396C94.8387 17.9735 84.7269 15.1405 72.5424 15.1405C65.7594 15.1405 59.2904 16.5885 53.1356 19.4844C46.9805 22.2545 41.5791 26.2207 36.9313 31.3829C32.4092 36.4194 28.7665 42.5261 26.0033 49.7031C23.2396 56.8799 21.8578 64.8123 21.8578 73.5002C21.8578 82.062 23.1767 89.9313 25.8147 97.1083C28.5783 104.285 32.2211 110.455 36.7431 115.617C41.3906 120.654 46.7919 124.62 52.947 127.516C59.1021 130.286 65.6339 131.671 72.5424 131.671C85.6063 131.671 96.7858 129.153 106.081 124.116V88.7983C106.081 87.0363 105.391 85.6512 104.01 84.6431C102.753 83.6365 101.497 82.8178 100.241 82.1867L100.413 81.2435C101.041 81.3587 102.171 81.4841 103.805 81.6199C105.439 81.7351 107.134 81.8606 108.892 81.9964H125.097C126.605 81.8812 128.049 81.7557 129.431 81.6199C130.812 81.5048 131.879 81.3793 132.633 81.2435L132.836 82.1883ZM269.31 11.5522C268.053 12.181 266.797 12.9998 265.542 14.0086C264.285 15.0151 263.595 16.9038 263.471 19.6746C263.356 22.6964 263.23 26.5367 263.095 31.1955C263.095 35.7283 263.037 40.8906 262.923 46.6822C262.923 52.4743 262.865 58.7699 262.75 65.569V86.7222C262.635 94.9062 261.63 101.894 259.734 107.686C257.85 113.478 255.338 118.325 252.198 122.229C249.183 126.132 245.792 129.217 242.023 131.483C238.38 133.75 234.737 135.449 231.095 136.583C227.577 137.843 224.249 138.598 221.109 138.849C217.968 139.227 215.519 139.416 213.76 139.416C206.6 139.416 199.692 138.471 193.034 136.583C186.377 134.821 180.536 131.925 175.511 127.895C170.487 123.866 166.467 118.64 163.453 112.219C160.438 105.798 158.93 97.9911 158.93 88.7996V67.4578V47.8154C158.93 41.7716 158.873 36.3575 158.758 31.573C158.758 26.6624 158.701 22.6962 158.586 19.6744C158.471 16.9043 157.78 15.0156 156.514 14.0084C155.257 13.0019 154.001 12.1831 152.746 11.5521L152.918 10.6089C153.546 10.724 154.551 10.8495 155.934 10.9853C157.442 11.1005 158.949 11.2259 160.456 11.3617C162.09 11.3617 163.66 11.4193 165.167 11.5345H171.95C173.457 11.4193 175.027 11.3617 176.66 11.3617C178.294 11.2466 179.801 11.1211 181.182 10.9853C182.69 10.8701 183.757 10.7447 184.384 10.6089L184.557 11.5521C183.176 12.1808 181.857 12.9996 180.6 14.0084C179.469 15.015 178.841 16.9036 178.714 19.6744C178.6 22.6962 178.474 26.6624 178.339 31.573V88.7994C178.339 102.524 181.542 112.659 187.948 119.207C194.354 125.754 203.838 129.028 216.399 129.028C220.042 129.028 224.187 128.587 228.835 127.705C233.483 126.698 237.817 124.683 241.836 121.661C245.981 118.639 249.436 114.358 252.199 108.818C255.088 103.278 256.533 95.9122 256.533 86.7209C256.533 76.7739 256.475 68.2749 256.36 61.224C256.36 54.0471 256.303 47.9404 256.188 42.9039C256.188 37.7416 256.131 33.3347 256.016 29.6832C255.901 26.032 255.776 22.6954 255.64 19.6734C255.525 16.9033 254.835 15.0146 253.568 14.0075C252.312 13.0009 251.055 12.1821 249.8 11.5509L249.973 10.6079C251.354 10.8588 252.924 11.111 254.683 11.3645C256.441 11.4797 258.074 11.5372 259.582 11.5372C260.963 11.5372 262.533 11.4797 264.292 11.3645C266.176 11.1135 267.809 10.8613 269.191 10.6079L269.31 11.5522ZM406.033 46.1146L404.902 46.4911C400.506 36.9218 394.225 29.3042 386.061 23.6383C378.021 17.9722 367.91 15.1392 355.725 15.1392C348.942 15.1392 342.473 16.5871 336.318 19.4829C330.163 22.2532 324.762 26.2194 320.114 31.3816C315.592 36.418 311.949 42.5246 309.186 49.7016C306.422 56.8787 305.041 64.8111 305.041 73.4987C305.041 82.1864 306.422 90.1188 309.186 97.2959C311.949 104.473 315.592 110.642 320.114 115.805C324.762 120.841 330.163 124.744 336.318 127.515C342.473 130.284 348.942 131.669 355.725 131.669C367.784 131.669 377.582 129.781 385.119 126.003C392.781 122.1 399.25 116.183 404.526 108.25L405.656 108.627L405.281 120.714C402.391 123.736 399.062 126.443 395.294 128.835C391.526 131.101 387.443 133.053 383.047 134.69C378.776 136.201 374.317 137.334 369.669 138.09C365.021 138.972 360.374 139.413 355.726 139.413C346.054 139.413 336.821 137.839 328.029 134.691C319.236 131.543 311.511 127.136 304.853 121.47C298.196 115.678 292.92 108.753 289.026 100.695C285.132 92.511 283.185 83.4454 283.185 73.4984C283.185 63.5514 285.132 54.5489 289.026 46.4907C292.92 38.3064 298.196 31.3183 304.853 25.5266C311.511 19.7346 319.236 15.3277 328.029 12.3059C336.822 9.15803 346.054 7.58411 355.726 7.58411C360.374 7.58411 365.021 7.96184 369.669 8.7173C374.317 9.47275 378.776 10.669 383.047 12.3059C387.443 13.8168 391.526 15.7685 395.294 18.1609C399.062 20.4272 402.391 23.0713 405.28 26.0932L406.033 46.1146ZM604.828 136.204C604.2 136.089 603.133 135.963 601.626 135.827C600.245 135.827 598.737 135.77 597.104 135.655C595.47 135.655 593.9 135.597 592.393 135.482H581.089C579.582 135.597 578.074 135.722 576.567 135.858C575.186 135.973 574.119 136.099 573.365 136.235L573.193 135.478C574.449 134.849 575.705 134.03 576.961 133.021C578.218 132.015 578.908 130.126 579.032 127.356C579.147 124.334 579.205 121.186 579.205 117.912C579.319 114.639 579.377 110.924 579.377 106.769V92.6041V73.5287V54.4534V40.0995C579.377 35.9445 579.319 32.293 579.205 29.1452C579.205 25.8715 579.147 22.7238 579.032 19.7019C578.917 16.9318 578.227 15.0432 576.961 14.036C575.704 12.9028 574.448 12.0218 573.192 11.3929L573.365 10.6364C574.118 10.8874 575.186 11.0762 576.567 11.203C578.074 11.203 579.582 11.2606 581.089 11.3757C582.723 11.4909 584.293 11.5485 585.8 11.5485H592.393C593.9 11.4333 595.471 11.3757 597.104 11.3757C598.737 11.2606 600.245 11.1351 601.626 10.9993C603.133 10.8842 604.2 10.7587 604.828 10.6229L605 11.3797C603.619 12.0084 602.3 12.8894 601.043 14.0226C599.913 15.0291 599.284 16.9178 599.158 19.6886C599.043 22.7104 598.918 25.8581 598.782 29.1318V117.899C598.897 121.173 599.022 124.32 599.158 127.342C599.273 130.112 599.901 132.001 601.043 133.008C602.3 134.015 603.619 134.833 605 135.464L604.828 136.204Z" fill="black"></path></svg>