<svg xmlns="http://www.w3.org/2000/svg" width="605" height="345" viewBox="0 0 605 345" fill="none"><path d="M77.1373 170.735H87.6801V190.832H50.1821V170.735H60.6771V158.96H27.342V170.735H37.9486V229.928H27.342V241.647H60.6771V229.928H50.1741V202.464H87.6721V229.928H77.1373V241.647H110.552V229.928H99.9136V170.735H110.56V158.96H77.1452M479.248 229.928H446.391V202.344H474.654V190.673H446.383V170.735H479.495V182.049H491.138V158.96H423.033V170.735H434.142V229.928H423.033V241.647H491.298V214.095H479.256M194.416 214.095H182.374V229.928H149.517V202.344H177.788V190.673H149.517V170.735H182.637V182.049H194.281V158.96H126.175V170.735H137.284V229.928H126.167V241.647H194.416M449.557 154.879H473.442L467.333 147.615H442.85M557.721 194.365C549.387 191.994 543.502 192.535 535.024 189.71C527.368 187.148 525.853 182.454 525.853 179.344C525.853 176.217 529.234 168.11 541.261 168.11C553.303 168.11 561.182 176.05 561.628 183.043L561.676 183.011V183.043H573.24V158.936H562.051V164.187L562.402 165.826C562.322 165.588 562.003 164.927 560.823 163.758C560.807 163.734 560.807 163.718 560.807 163.694C557.258 160.512 550.495 157.043 540.327 157.043C528.006 157.043 513.492 164.665 513.492 179.399C513.492 193.76 523.891 198.772 532.711 201.095C541.548 203.434 546.053 203.434 553.422 205.423C560.775 207.412 565.544 211.836 565.544 218.392C565.544 224.597 561.716 232.736 546.149 232.736C530.558 232.736 524.402 224.351 522.599 212.353L522.472 212.409H511.466V241.671H522.966V236.197L522.934 236.158L522.52 234.71C522.52 234.71 522.934 235.688 524.242 236.595L524.354 236.754C530.175 241.21 537.815 244.169 547.609 244.169C558.534 244.169 577.658 238.576 577.658 218.766C577.626 204.588 570.082 197.905 557.721 194.357V194.365ZM373.692 229.928V241.647H407.505V229.928H396.42V170.735H407.505V158.96H377.281L357.264 207.285L356.849 209.656L356.45 207.245L336.433 158.952H306.24V170.727H317.301V229.92H306.224V241.639H340.014V229.928H329.447V175.493L329.527 171.897L330.508 174.761L353.555 229.777H360.111L383.238 174.745L384.083 171.849L384.211 175.111V229.928M142.723 124.145V126.85H154.127C152.999 126.002 151.913 125.099 150.873 124.145H142.723ZM449.884 124.192H443.951C442.3 124.511 441.08 125.903 440.944 126.85H449.876V124.184L449.884 124.192ZM142.723 134.742H449.836V129.014H252.314C247.266 131.416 240.862 131.305 235.87 129.014H175.898C170.236 131.496 163.713 131.48 158.035 129.037L142.723 128.998V134.726V134.742ZM229.203 124.145H182.821C182.661 124.463 180.54 126.293 179.679 126.85H232.153C231.066 126.068 230.075 125.16 229.203 124.145Z" fill="black"></path><path d="M147.986 102.886C147.418 104.698 147.114 106.581 147.085 108.479C147.23 113.626 149.382 118.513 153.081 122.102C156.781 125.691 161.738 127.7 166.899 127.701C172.06 127.702 177.017 125.696 180.719 122.108C184.42 118.52 186.573 113.634 186.72 108.487C186.72 106.148 186.242 103.928 185.492 101.844C187.773 101.446 190.006 100.969 192.207 100.356C193.244 100.078 193.204 99.6083 192.391 99.3617C189.456 98.4626 186.33 97.7705 183.14 97.1817C181.319 94.57 178.892 92.4363 176.066 90.9623C173.241 89.4883 170.099 88.7178 166.911 88.7165C164.359 88.7165 161.95 89.2336 159.733 90.1088C159.701 90.0929 159.67 90.0452 159.654 90.0293C159.202 89.2172 158.946 88.3117 158.904 87.3841C158.863 86.4564 159.037 85.5318 159.414 84.6828C161.432 81.4049 165.906 80.124 169.582 79.8137C170.818 79.7501 173.785 79.8933 174.104 80.2433C174.822 80.8162 176.058 81.023 177.374 80.5616C178.634 81.0389 178.953 81.4129 180.388 81.8584C193.021 86.1547 207.009 88.4221 221.14 85.8364C223.349 87.9209 224.569 91.5807 226.116 94.1107C226.531 94.7472 227.034 93.6333 233.996 93.3947C236.452 93.2992 239.466 93.3151 242.09 93.3787C236.667 93.9993 232.002 97.0385 229.235 101.43C224.88 102.815 221.523 104.135 220.263 104.899C218.716 105.83 218.429 106.347 220.263 106.824C222.48 107.405 224.633 107.779 226.778 108.042C226.635 108.917 226.507 109.816 226.507 110.731C226.507 115.385 228.36 119.848 231.659 123.138C234.957 126.429 239.431 128.278 244.096 128.278C248.761 128.278 253.234 126.429 256.533 123.138C259.831 119.848 261.684 115.385 261.684 110.731C261.684 107.708 260.847 104.899 259.499 102.417C261.716 101.621 264.045 100.746 266.517 99.7913C268.431 100.483 269.731 101.621 271.103 103.212C272.219 104.469 274.747 103.976 276.247 103.61C278.679 102.974 279.054 101.04 279.038 98.8366C279.038 97.8341 279.086 96.8476 279.564 96.052C282.411 89.5837 293.791 88.7324 299.629 87.3003C299.629 87.3003 296.575 90.9601 294.413 91.7716C293.975 101.215 290.346 109.434 289.908 118.44C292.659 118.552 292.539 121.623 293.201 123.373C292.436 125.028 291.112 123.373 289.908 123.93C285.729 121.623 290.897 117.899 287.483 115.043C289.238 107.485 292.109 100.125 291.869 92.1137C290.777 92.2251 290.354 93.4344 289.9 94.3096C289.126 101.892 286.933 108.805 284.955 115.823C285.832 116.26 287.372 116.698 287.268 118.019C284.62 119.665 287.372 122.315 286.271 124.192H259.117L256.102 126.898H297.747L298.146 125.37C292.005 119.005 294.318 109.458 297.165 102.218L304.31 92.5593C310.252 90.252 313.88 83.012 320.148 80.7048C320.148 83.7838 316.297 85.1045 314.207 86.8548C312.022 92.0103 305.084 92.5593 304.095 98.2717C306.727 101.343 310.674 103.316 313.984 106.172C317.397 108.264 316.169 112.648 318.928 114.844C319.375 115.504 318.928 116.491 318.147 117.04C315.252 117.732 315.34 119.681 317.086 121.304C318.203 122.339 319.479 123.691 319.335 124.2H300.116C300.116 125.076 300.897 125.41 301.742 126.905H407.888C408.686 125.41 406.955 123.644 406.214 122.172C398.717 119.347 398.757 112.274 398.318 104.477C398.398 104.159 397.888 103.419 397.968 101.812C396.851 100.762 391.923 88.2471 394.164 78.4532L395.798 75.231C397.338 73.0272 395.703 71.8497 396.795 69.5504L419.165 65.2382C419.564 65.0314 419.46 64.1244 419.037 63.7107L412.243 64.9677C406.844 62.7003 398.925 57.688 393.709 50.8856C395.328 39.8585 394.522 30.9159 393.43 24.9489C396.7 22.2438 399.363 19.682 399.363 19.682C401.62 21.0345 402.107 20.398 402.418 19.6661C402.059 19.2524 398.709 17.8362 399.259 16.3882C401.373 16.9451 401.843 16.2927 402.17 15.1152L400.687 14.5901H400.639L400.878 13.7945C401.309 12.9193 403.303 13.7468 404.068 13.524C405.4 12.7125 403.909 11.4952 404.355 10.3973C401.245 7.77179 395.631 7.69223 392.234 5.24973C391.181 3.29254 390.75 2.46511 389.65 1.66951C388.517 0.873906 383.589 0.420412 382.672 0.714786C381.771 1.03303 380.04 2.6481 380.04 2.6481C376.507 3.38801 374.378 2.2503 371.945 0.778434C371.945 0.778434 372.464 3.56305 375.247 4.74054C372.791 5.743 371.706 7.81157 371.307 10.4052C367.926 11.0895 367.798 14.4469 368.237 15.9745C365.47 17.6214 365.741 19.8093 366.722 22.0211C364.25 23.6759 364.624 26.0627 365.326 27.8847C363.253 29.1576 365.326 32.6901 365.645 34.7587C371.603 33.5334 379.043 46.6529 389.729 48.268C391.739 38.9038 389.219 34.3131 386.906 29.6907C388.645 28.6803 390.535 27.2879 392.369 25.824C393.438 31.7513 394.203 40.3358 393.007 50.1456C392.927 50.0661 392.848 50.0024 392.8 49.9229C392.13 49.9229 391.46 49.4773 390.918 49.2625C391.029 49.5808 392.258 51.53 392.01 51.888C392.01 51.888 388.549 54.1714 381.683 51.2913C379.849 55.5717 356.275 66.0895 356.275 66.0895C357.152 72.5817 360.246 76.8938 363.436 80.4104C368.5 84.1497 373.907 86.0751 380.295 87.3958C381.635 90.8487 385.957 102.337 386.356 104.183C386.787 106.029 387.816 106.029 387.816 106.029C388.43 106.856 390.447 110.516 390.67 112.274L391.173 118.48C391.388 119.896 393.246 118.83 393.597 120.039L392.736 124.208L322.118 124.224C323.107 119.292 320.587 114.979 321.895 110.588C319.056 105.655 311.352 102.25 312.66 95.7735C316.408 90.618 328.052 85.5898 325.42 79.3602C336.003 74.0058 341.585 82.9404 351.609 82.2801C355.102 82.0891 358.994 81.7072 362.192 80.7684C358.237 77.3473 354.457 72.3191 352.463 67.824C331.457 76.2573 311.025 83.203 288.249 87.8095L286.494 87.2526C284.764 87.5151 259.675 93.1401 253.024 95.7258C251.278 94.6781 249.361 93.943 247.362 93.5538H247.944C250.073 93.5538 253.327 92.424 255.632 91.6205C265.377 88.0721 268.966 74.2286 273.336 65.4292C277.164 79.1136 286.048 80.2274 291.2 78.5248L291.678 82.8211C291.678 82.8211 296.176 82.662 299.557 81.3094C299.214 80.4979 298.76 78.3259 298.441 75.4697C300.49 74.4116 301.599 73.6398 302.532 73.0988C302.811 76.3449 303.01 79.4079 302.037 81.0548L313.633 77.9679C315.866 67.9672 321.927 54.068 332.637 43.9161C318.258 38.2116 307.484 44.7276 304.749 47.3372C291.216 51.6493 290.673 70.2824 291.08 76.6949C288.735 77.1564 278.894 80.5616 274.237 63.5675C276.948 57.0435 282.092 49.7876 287.874 44.1309C288.376 43.7092 287.794 43.0409 286.638 43.7172C275.018 51.6732 270.768 65.6758 264.524 77.4985C259.627 84.8419 253.016 88.8199 243.103 88.3983C230.726 88.2073 224.737 75.3265 219.067 66.9647C210.374 47.9736 187.885 54.792 171.169 50.7344C170.236 50.257 168.378 44.7674 165.715 44.9742C163.824 45.1174 165.603 47.0587 164.518 47.7111C162.421 46.8359 160.658 45.3004 158.027 45.738C156.376 46.0721 155.929 47.8225 156.049 49.3659C157.365 55.3966 163.848 58.038 168.689 60.2339C170.547 63.0026 169.853 72.5657 168.306 75.8516C166.313 79.5114 158.473 78.2066 156.902 86.5922C156.599 88.2948 156.982 89.7747 157.684 91.167C154.639 92.7643 152.062 95.1217 150.203 98.0092C146.878 98.8048 143.632 99.6958 140.602 100.778C139.804 101.064 139.804 101.526 140.841 101.764C143.177 102.242 145.578 102.64 148.002 102.942L147.986 102.886ZM395.639 55.9297C398.51 59.0564 405.368 63.8062 409.754 65.3576L397.05 67.7046C398.486 62.3343 393.597 60.2737 395.639 55.9297ZM397.011 12.4659C397.489 12.267 398.829 12.7841 399.379 12.9273C399.714 13.0069 399.586 13.7229 399.419 14.3594C398.59 14.5344 397.298 14.0809 397.122 13.6433C396.883 13.166 396.54 12.6727 397.011 12.4659ZM397.114 15.7278C397.274 16.6587 397.657 17.7168 398.207 18.5124C398.191 18.9421 395.838 21.1141 393.127 23.4054C392.457 20.0877 391.771 17.8044 391.612 16.8974C392.688 16.1336 395.599 15.3062 397.114 15.7278ZM384.953 4.08815C385.431 3.92902 386.404 4.24727 386.667 4.43821C386.93 4.63711 386.715 5.44067 386.699 5.71118C386.699 5.98168 385.487 6.55452 385.487 6.55452C385.487 6.55452 384.338 5.67935 384.354 5.40885L384.299 5.38498C384.487 4.93828 384.705 4.50498 384.953 4.08815ZM386.444 28.6166C384.945 25.5933 383.732 22.395 384.051 17.7168C385.503 17.693 387.608 18.6397 390.391 17.3827C390.391 17.3827 391.253 19.9763 392.106 24.2249C390.033 25.9513 387.879 27.6301 386.444 28.6166ZM367.424 81.206C362.878 78.9306 365.709 80.84 367.025 79.8535C374.226 83.1632 377.855 82.3994 383.246 81.747C384.019 82.7336 385.08 83.6565 385.08 84.9692C378.485 86.8389 373.357 84.4123 367.416 81.214L367.424 81.206ZM393.366 116.61C392.943 113.126 392.744 110.659 391.133 108.996C389.857 105.528 386.157 95.8849 383.525 87.1969C385.12 85.6216 386.356 86.4411 387.417 90.7612C388.43 94.246 389.65 97.126 390.575 100.038C391.803 102.966 392.728 106.864 393.669 108.917C393.669 108.917 394.498 109.06 394.961 110.166C397.274 116.61 397.88 117.645 397.489 120.716C398.047 123.126 401.445 121.161 401.134 124.137H393.924L397.098 124.113C394.913 121.806 396.46 118.369 393.366 116.61ZM252.753 122.378C250.759 123.866 248.366 124.813 245.759 125.115C245.503 125.036 245.28 124.519 245.264 124.2L244.849 115.234C244.833 115.138 244.993 115.035 245.089 114.995C245.312 114.916 245.926 114.677 246.173 114.534C246.269 114.478 246.516 114.454 246.596 114.534L252.497 121.36C252.705 121.615 252.896 122.172 252.737 122.394L252.753 122.378ZM243.629 125.243C241.237 125.163 239.004 124.487 237.034 123.397C236.875 123.174 236.93 122.585 237.114 122.323L242.042 114.828C242.09 114.749 242.282 114.749 242.393 114.78C242.601 114.844 243.087 114.979 243.366 115.019C243.478 115.019 243.685 115.178 243.685 115.282L244.124 124.272C244.14 124.59 243.884 125.147 243.621 125.227L243.629 125.243ZM231.188 106.57C230.869 106.474 230.391 106.045 230.407 105.774C230.861 104.533 231.444 103.364 232.201 102.305C233.397 101.963 234.634 101.637 235.87 101.319L239.857 106.331L239.674 106.355C237.09 106.673 234.673 106.832 232.385 106.864L231.188 106.546V106.57ZM242.409 96.3066C242.648 96.402 242.888 96.9112 242.888 97.2215L242.928 97.9216C240.535 98.3831 238.19 98.9002 235.941 99.4731C235.798 99.1787 235.726 98.8366 235.846 98.6775C237.76 97.3806 239.993 96.585 242.385 96.3145L242.409 96.3066ZM241.149 106.092L237.098 101.032C239.06 100.555 241.037 100.118 243.015 99.7277L243.286 105.655C242.489 105.846 241.827 105.973 241.149 106.092ZM240.766 107.684C240.75 107.739 240.766 107.795 240.734 107.843C240.543 108.115 240.37 108.399 240.216 108.694C240.168 108.798 239.977 108.949 239.857 108.933L236.946 108.137C238.19 108.01 239.458 107.899 240.774 107.676L240.766 107.684ZM246.133 106.602C246.086 106.681 245.894 106.681 245.783 106.641H245.743L246.165 106.546L246.141 106.594L246.133 106.602ZM244.435 105.368L244.156 99.5049C246.596 99.0434 248.996 98.6615 251.285 98.391C251.258 98.6348 251.188 98.8718 251.078 99.0912L247.465 104.565C246.397 104.883 245.408 105.13 244.435 105.368ZM252.035 99.7197C252.194 99.4572 252.705 99.1628 252.976 99.2185C254.013 100.03 254.97 100.969 255.767 102.027C253.614 102.743 251.381 103.427 249.164 104.096L252.035 99.7197ZM244.06 97.7068L244.044 97.1499C244.028 96.8157 244.283 96.227 244.538 96.1713C246.054 96.2111 247.489 96.5055 248.845 96.9669C247.25 97.1738 245.671 97.4125 244.06 97.6989V97.7068ZM243.861 96.1554C243.94 96.1554 244.004 96.1315 244.076 96.1315L244.267 96.1474H243.853L243.861 96.1554ZM222.982 106.053C222.201 105.814 222.384 105.575 222.855 105.376C224.426 104.756 226.188 104.143 228.038 103.547C227.584 104.565 227.241 105.631 226.97 106.729C225.623 106.627 224.288 106.395 222.982 106.053ZM229.721 108.32C230.901 108.384 232.114 108.368 233.334 108.344L239.522 110.039C239.602 110.063 239.666 110.246 239.666 110.357C239.666 110.596 239.706 111.232 239.777 111.511C239.777 111.622 239.698 111.709 239.602 111.749L231.348 115.385C231.045 115.504 230.447 115.497 230.263 115.29C229.749 113.821 229.474 112.279 229.45 110.723C229.45 109.895 229.562 109.108 229.689 108.336L229.721 108.32ZM230.638 116.411L230.614 116.356C230.614 116.38 230.63 116.396 230.638 116.411ZM231.085 117.239C231.085 116.968 231.523 116.555 231.803 116.427L240.096 112.974C240.176 112.927 240.336 113.054 240.399 113.134C240.543 113.309 240.758 113.571 240.958 113.77C241.053 113.85 241.133 114.088 241.085 114.168L236.141 121.694C235.965 121.965 235.423 122.251 235.168 122.172C233.46 120.851 232.07 119.166 231.101 117.239H231.085ZM236.005 122.832C235.926 122.776 235.87 122.729 235.798 122.689L236.013 122.824L236.005 122.832ZM254.427 120.994C254.188 121.137 253.59 120.835 253.367 120.596L247.489 113.778C247.409 113.714 247.473 113.539 247.537 113.436C247.695 113.202 247.836 112.957 247.96 112.704C248.015 112.601 248.199 112.449 248.319 112.465L257.011 114.868C257.282 114.948 257.729 115.242 257.825 115.504C257.083 117.573 255.951 119.467 254.427 120.994ZM258.399 113.515C258.255 113.754 257.601 113.834 257.282 113.754L248.63 111.367C248.526 111.343 248.47 111.16 248.47 111.049C248.471 110.717 248.45 110.384 248.406 110.055C248.382 109.943 248.446 109.705 248.542 109.657L256.947 106.474C257.242 106.363 257.825 106.419 258.024 106.618C258.399 107.922 258.662 109.267 258.662 110.699C258.662 111.654 258.558 112.608 258.383 113.523L258.399 113.515ZM257.282 104.565C257.282 104.843 256.844 105.281 256.549 105.4L257.107 105.209L248.151 108.567C248.055 108.607 247.912 108.487 247.848 108.408C247.65 108.139 247.437 107.881 247.21 107.636C247.106 107.556 247.035 107.334 247.074 107.238L247.848 106.069C250.575 105.353 253.51 104.43 256.62 103.364C256.86 103.761 257.099 104.159 257.29 104.573L257.282 104.565ZM280.649 91.7557C276.757 94.5562 278.591 97.858 276.183 98.5183C275.306 98.391 270.409 99.2821 269.643 99.6322C267.993 98.0967 266.31 96.7998 263.774 96.1315C268.599 94.1584 276.247 92.2013 280.649 91.7557ZM264.819 98.7172C263.981 99.115 261.748 99.9743 258.742 101.024C257.993 99.9024 257.115 98.8717 256.126 97.9535C259.89 97.7546 262.96 97.9535 264.819 98.7172ZM306.83 49.5648C300.945 55.4682 301.703 64.2835 302.388 71.2212C301.033 72.2077 299.358 73.0352 298.273 73.6398C297.635 65.1269 298.544 52.429 306.83 49.5648ZM159.534 52.5563C158.545 51.2356 157.094 49.2148 158.218 47.8384C159.047 46.82 160.738 47.6156 161.727 48.0612C162.564 48.4987 169.16 52.0392 170.954 52.5324C184.272 55.8422 201.099 50.9651 211.658 60.5124C212.176 60.9897 212.551 61.4432 212.439 62.1036C196.944 51.5698 173.61 67.1477 159.534 52.5563ZM172.071 69.5663C173.171 70.2267 173.61 71.977 174.822 72.9636C176.8 76.2573 180.54 77.3553 182.518 80.2035C181.85 80.2559 181.178 80.2076 180.524 80.0603C179.232 79.8057 178.722 79.4239 177.637 78.9465C177.063 78.0156 175.619 77.7053 174.487 78.31C173.586 78.4691 171.09 78.3498 169.431 77.9122C169.75 75.2708 172.302 72.7408 172.063 69.5584L172.071 69.5663ZM156.567 97.9694L160.619 102.465C157.684 102.441 154.853 102.305 152.165 102.122C151.958 101.836 151.846 101.566 151.902 101.406C152.42 100.324 153.05 99.3219 153.776 98.3831C154.677 98.224 155.626 98.1046 156.567 97.9853V97.9694ZM180.588 99.0832C181.082 99.7993 181.481 100.563 181.864 101.351C179.87 101.645 177.749 101.868 175.516 102.043L178.682 99.3378C179.479 98.7013 180.388 98.8366 180.588 99.0832ZM177.796 98.3831L173.299 102.202C172.15 102.282 170.986 102.313 169.814 102.361L171.648 97.1579C173.929 97.2374 176.146 97.3965 178.211 97.6034C178.115 97.8819 178.036 98.1603 177.812 98.3831H177.796ZM176.696 121.814C175.101 122.975 173.299 123.834 171.353 124.383C171.002 124.336 170.332 123.795 170.141 122.999L168.386 113.508C168.354 113.388 168.402 113.237 168.522 113.189C168.858 113.08 169.179 112.931 169.479 112.744C169.582 112.664 169.718 112.72 169.798 112.807L176.297 119.936C176.935 120.684 176.911 121.543 176.696 121.806V121.814ZM162.931 105.026C163.011 105.106 163.043 105.281 162.971 105.376C162.772 105.615 162.7 105.695 162.54 105.989C162.485 106.1 162.349 106.116 162.221 106.069L154.98 103.491C157.213 103.618 159.462 103.674 161.703 103.674L162.931 105.026ZM170.109 104.668C169.891 104.468 169.65 104.295 169.391 104.151C169.263 104.088 169.231 103.992 169.279 103.857L169.415 103.491L171.935 103.364L170.42 104.637C170.34 104.716 170.204 104.748 170.109 104.668ZM168.394 102.401C167.756 102.417 167.15 102.457 166.528 102.465H166.496L165.499 97.134C165.818 97.1181 166.097 97.0783 166.408 97.0544C167.724 97.0544 169.008 97.1022 170.3 97.134L168.386 102.409L168.394 102.401ZM164.183 97.2136L165.156 102.465C164.239 102.48 163.322 102.48 162.389 102.465L158.083 97.7705C160.06 97.5318 162.086 97.3488 164.183 97.2136ZM165.26 103.658C165.236 103.69 165.26 103.753 165.212 103.769C164.878 103.889 164.557 104.043 164.255 104.231C164.143 104.31 164.016 104.255 163.936 104.167L163.49 103.674C164.08 103.658 164.686 103.674 165.268 103.65L165.26 103.658ZM151.543 102.067C151.567 102.003 151.623 101.931 151.647 101.852C151.619 101.929 151.584 102.003 151.543 102.075V102.067ZM150.801 104.469C150.985 104.175 151.838 103.809 152.652 104.072L161.767 107.318C161.871 107.35 161.966 107.477 161.942 107.596C161.89 107.89 161.864 108.189 161.863 108.487C161.863 108.615 161.759 108.686 161.647 108.726L152.125 110.492C151.184 110.627 150.53 110.174 150.395 109.856C150.355 109.378 150.259 108.933 150.259 108.455C150.259 107.079 150.466 105.758 150.801 104.469ZM150.961 113.014C150.993 112.656 151.543 111.94 152.365 111.757L161.855 110.023C161.914 110.01 161.976 110.019 162.029 110.048C162.081 110.077 162.122 110.125 162.142 110.182C162.237 110.452 162.269 110.58 162.445 110.866C162.501 110.977 162.469 111.089 162.365 111.184L154.813 117.247C153.999 117.859 153.138 117.724 152.939 117.486C152.071 116.096 151.405 114.59 150.961 113.014ZM153.234 117.915C153.154 117.812 153.074 117.716 153.01 117.597C153.058 117.692 153.162 117.812 153.234 117.915ZM155.012 120.079C154.837 119.809 154.964 118.806 155.634 118.249L163.178 112.243C163.258 112.131 163.394 112.107 163.497 112.203C163.713 112.402 164.056 112.656 164.343 112.815C164.462 112.879 164.502 112.974 164.439 113.118L161.169 122.203C160.818 123.118 160.084 123.476 159.757 123.413C157.998 122.579 156.395 121.448 155.02 120.071L155.012 120.079ZM160.539 123.803C160.437 123.768 160.338 123.726 160.244 123.675L160.539 123.803ZM162.82 124.519C162.517 124.336 162.102 123.516 162.357 122.705L165.659 113.587C165.691 113.468 165.802 113.388 165.922 113.412C166.217 113.468 166.48 113.492 166.823 113.492C166.959 113.492 167.038 113.603 167.062 113.73L168.841 123.238C168.984 124.153 168.562 124.749 168.243 124.94C167.796 124.972 167.349 125.076 166.887 125.076C165.475 125.076 164.135 124.861 162.836 124.519H162.82ZM178.53 120.302C178.61 120.222 178.69 120.143 178.738 120.063C178.658 120.143 178.602 120.222 178.53 120.302ZM179.112 119.626C178.817 119.809 177.876 119.745 177.278 119.132L170.826 111.94C170.747 111.861 170.715 111.701 170.802 111.598C170.966 111.409 171.105 111.201 171.217 110.977C171.273 110.858 171.409 110.834 171.52 110.898L180.771 114.176C181.728 114.55 181.967 115.306 181.888 115.608C181.17 117.069 180.249 118.422 179.152 119.626H179.112ZM181.904 115.473C182.039 115.234 182.191 114.852 182.342 114.47C182.208 114.807 182.061 115.138 181.904 115.465V115.473ZM182.964 112.473C182.837 112.776 182.007 113.221 181.154 112.951L171.951 109.657C171.847 109.625 171.752 109.498 171.767 109.378C171.815 109.076 171.847 108.933 171.847 108.607C171.847 108.479 171.959 108.408 172.071 108.368L181.776 106.856C182.733 106.737 183.339 107.19 183.435 107.517C183.451 107.835 183.514 108.153 183.514 108.471C183.514 109.848 183.307 111.176 182.98 112.465L182.964 112.473ZM182.924 104.342C182.924 104.724 182.366 105.408 181.537 105.567L171.887 107.079C171.828 107.089 171.768 107.079 171.716 107.05C171.663 107.021 171.623 106.975 171.6 106.92C171.5 106.589 171.366 106.269 171.201 105.965C171.121 105.862 171.153 105.75 171.241 105.647L174.112 103.196C176.855 102.99 179.575 102.679 182.27 102.282C182.534 102.958 182.725 103.634 182.908 104.35L182.924 104.342ZM187.893 99.3617C188.515 99.5606 188.73 99.9743 187.941 100.189C187.111 100.412 186.106 100.587 185.149 100.786C184.79 99.9425 184.312 99.1707 183.849 98.399C185.349 98.6854 186.72 98.9957 187.885 99.3537L187.893 99.3617ZM172.126 95.8372L172.525 94.6994C172.876 93.7925 173.642 93.4822 173.992 93.5379C175.54 94.2778 176.967 95.2405 178.219 96.402C176.193 96.1401 174.158 95.9543 172.118 95.8451L172.126 95.8372ZM170.866 92.4161C171.161 92.6309 171.552 93.4901 171.305 94.2857L170.763 95.7974C169.287 95.7337 167.828 95.6542 166.352 95.6701C165.97 95.6701 165.611 95.7496 165.22 95.7496L164.845 93.7129C164.702 92.7741 165.14 92.1694 165.467 92.0183C165.946 91.9785 166.392 91.875 166.863 91.875C168.251 91.875 169.574 92.0978 170.866 92.4161ZM162.333 92.5752C162.692 92.615 163.386 93.1639 163.569 93.9754L163.809 95.2723C162.991 94.5205 162.238 93.7007 161.56 92.8218L162.341 92.5831L162.333 92.5752ZM161.775 96.0201C160.228 96.1634 158.689 96.3384 157.165 96.5771C156.846 95.9565 156.83 95.3837 157.006 95.1768C157.764 94.6199 158.585 94.1266 159.446 93.697C160.132 94.4767 160.914 95.2564 161.775 96.0201ZM145.012 100.491C146.256 100.046 147.771 99.6322 149.446 99.2344C149.004 100.051 148.618 100.896 148.289 101.764C147.149 101.629 145.977 101.502 145.02 101.319C144.206 101.176 144.398 100.714 145.012 100.491ZM437.73 53.3678C437.395 53.6463 437.284 54.0282 437.555 54.0839C438.065 54.1794 438.352 54.3544 438.943 54.8954C439.262 55.0545 439.182 54.5612 439.102 54.2907C438.783 53.527 438.113 53.0655 437.746 53.3678H437.73Z" fill="black"></path><path d="M425.768 124.192H410.089C409.89 125.251 411.126 126.022 411.844 126.842H428.966L433.751 124.519C434.596 122.45 432.89 120.62 432.953 118.949C433.241 113.969 430.457 109.004 428.99 104.446C429.947 103.435 431.143 101.104 432.714 101.725C436.383 107.421 437.06 114.693 436.438 121.933C436.064 123.723 433.009 125.354 433.105 127.041C433.161 127.629 437.172 127.375 438.831 125.967C439.126 124.805 441.279 123.373 441.973 123.206C442.739 121.018 441.542 121.09 441.734 119.769C442.117 118.854 441.606 108.988 440.92 107.93C440.665 107.771 440.577 107.771 440.561 107.795C439.796 105.838 441.662 102.838 442.412 100.985L447.882 100.491C447.228 95.6383 445.49 90.5941 444.389 85.6137C445.059 84.4521 446.271 83.5451 447.38 82.8847C453.146 79.0897 448.066 72.9715 447.874 68.2456C446.894 65.7952 443.512 63.8857 443.201 61.1807C443.903 61.7217 444.437 61.4989 444.589 61.5387C446.24 60.4089 446.16 58.7779 445.338 56.7332C447.843 53.7577 449.374 52.3892 449.836 51.4425C449.677 48.9522 445.665 45.2368 443.313 45.2368C441.925 46.0005 441 47.544 438.448 49.5171C438.368 49.6205 435.386 48.4828 434.485 49.4376C433.607 50.1536 433.91 52.4609 435.521 53.71C435.322 54.3226 435.139 54.5612 434.804 55.3012C434.628 55.6671 434.548 56.057 434.78 56.2718C435.306 56.7492 435.497 57.4891 435.123 58.6268C434.724 59.8361 436.08 60.7272 436.558 60.9022C436.638 60.9261 436.797 61.0932 436.957 61.3C437.132 62.6366 432.587 65.0393 432.587 66.0736C432.228 69.2003 430.274 68.8901 428.376 79.1613C428.615 81.6516 428.583 83.8554 428.408 85.8205C426.079 91.9626 424.181 95.503 422.602 99.9425C421.294 103.602 428.631 114.2 428.743 121.424C427.148 123.811 425.872 123.468 425.768 124.185V124.192ZM437.675 113.189C437.3 112.211 436.989 110.826 437.18 109.8C437.818 109.187 439.014 109.641 439.62 109.545C440.362 112.967 440.546 113.444 437.683 113.205L437.675 113.189ZM437.73 62.6128C437.938 62.4536 438.129 61.9444 438.249 61.7615C440.665 60.218 438.998 61.3318 436.598 60.0668C435.816 59.669 435.8 58.9212 435.896 57.863C436.04 56.5503 435.497 56.2957 435.29 55.874C435.21 55.699 435.585 55.0545 435.896 54.601C436.454 53.7577 436.957 52.0074 437.22 51.5777C441.223 51.7369 440.33 53.5031 440.434 53.8213C440.753 54.6806 442.428 56.5264 443.249 57.1072C443.01 59.5258 441.112 58.1017 441.957 60.3055C441.734 64.4904 436.749 63.9653 434.62 67.4023C434.405 63.9971 437.411 64.0051 437.73 62.6048V62.6128ZM433.185 80.6252C434.269 81.6038 435.418 82.837 436.247 83.0439C436.821 84.4759 435.051 84.6748 434.413 85.3511C432.922 85.5739 432.363 83.9986 431.494 84.7146C431.295 84.8737 430.401 84.6908 430.417 84.5157C430.896 83.2428 432.228 81.4129 433.177 80.6173L433.185 80.6252ZM423.734 101.947C423.176 99.0514 427.036 94.5483 429.604 85.7171C430.657 85.3511 431.215 87.7618 432.714 86.8309C435.027 86.8866 434.038 92.8934 436.191 89.0745C436.143 87.3879 436.096 85.4943 437.435 84.5953C438.887 84.2611 439.828 85.0726 439.923 86.3456L437.691 89.8144C441.917 89.9736 436.335 96.7521 441.917 95.511C441.734 98.0569 440.362 105.193 439.381 104.835C438.616 100.881 437.994 102.528 437.994 103.69C438.153 105.225 438.121 106.474 439.03 107.716C438.727 108.034 437.595 108.002 437.276 108.074C434.118 103.578 434.245 97.4125 432.212 92.5275C431.869 92.5115 431.438 92.9253 431.454 93.2833C431.215 96.227 430.066 100.476 427.642 101.876C426.127 102.767 430.976 102.226 427.004 104.088C428.519 105.09 427.124 106.451 425.457 106.451C424.628 104.684 423.99 103.22 423.742 101.939L423.734 101.947ZM427.921 111.702C427.347 111.033 426.462 109.1 426.103 108.264L428.416 107.31C429.133 108.105 429.851 109.585 429.955 110.89C429.436 111.168 428.719 111.646 427.921 111.702ZM353.476 64.2835C353.133 59.5895 355.071 55.6114 352.877 50.5991C352.901 48.5306 354.353 46.9394 353.962 45.0299L350.397 45.8892C349.855 49.8354 349.201 51.1401 349.735 54.8556C350.676 59.1121 351.155 62.9867 353.468 64.2915L353.476 64.2835ZM316.647 77.411C330.285 73.5921 339.695 70.3301 350.995 65.5963C346.29 55.5717 347.327 52.6757 347.726 46.2631C347.726 46.2631 341.984 46.3427 335.309 44.5764C327.398 49.6683 318.163 67.8956 316.647 77.411ZM363.444 80.3149C363.795 80.7446 362.71 79.5989 363.444 80.3149ZM379.833 49.9229C374.091 45.9767 369.641 36.7954 363.38 37.416C362.774 30.6534 359.816 19.1728 369.178 7.0637C370.39 6.50678 372.368 6.29197 373.134 5.40885C369.306 5.01105 364.266 7.37399 360.613 5.30542C360.613 5.30542 362.304 8.24915 364.266 8.69469C362.974 10.445 360.47 11.6941 361.993 14.7413C358.867 16.595 360.047 19.3717 361.012 20.8674C359.449 22.4745 358.5 25.3626 360.573 27.1209C358.021 29.8498 361.187 32.165 361.929 33.0879C360.637 35.8168 361.881 37.9252 361.881 37.9252C361.833 39.8903 358.324 42.6988 357.056 43.6058C355.541 48.2203 356.123 57.505 356.354 63.655C364.888 59.5815 373.261 55.7069 379.833 49.9229ZM281.741 213.038C281.741 208.184 278.496 202.456 274.038 199.767C272.948 199.107 271.719 198.709 270.449 198.605C271.533 198.669 273.001 198.589 274.38 198.017C274.426 197.998 274.475 197.988 274.524 197.985C279.038 195.98 284.509 190.148 284.509 180.322C284.509 173.058 281.374 167.195 276.055 163.336C271.079 159.74 265.177 158.929 259.284 158.929H212.87V170.703H223.317V230.016H212.87V241.743H245.83V230.008H235.519V203.88H258.303C266.158 203.976 269.197 209.131 269.356 213.563L269.93 241.727H292.707V230.016H282.06L281.741 213.038ZM260.767 192.511H235.527V170.711H259.412C261.884 170.711 264.962 170.632 267.363 171.849C270.297 173.337 273.049 176.543 273.049 181.778C273.049 187.825 267.498 192.511 260.767 192.511ZM208.747 270.862H193.013V318.177H200.03V297.698H207.814C219.138 297.698 224.282 291.89 224.282 284.459C224.282 276.964 219.417 270.862 208.747 270.862ZM208.46 291.603H200.046V276.964H208.755C215.135 276.964 217.049 280.704 217.049 284.157C217.049 288.89 213.691 291.603 208.46 291.603ZM251.564 270.584L230.574 318.161H238.151L243.892 304.214H264.667L270.608 318.161H278.344L256.493 270.584H251.548H251.564ZM246.62 298.111L253.925 279.415L261.796 298.111H246.62ZM350.23 270.862H357.248V318.177H350.23V270.862ZM386.428 281.961C386.428 278.619 389.841 276.336 394.594 276.336C398.103 276.336 402.354 277.45 406.732 281.269V273.551C403.271 271.405 399.283 270.257 395.208 270.233C385.734 270.233 379.522 275.142 379.522 282.852C379.522 295.82 401.875 296.934 401.875 306.72C401.875 309.345 399.228 312.671 393.462 312.671C388.374 312.671 383.621 310.236 379.825 305.829V314.421C384.147 317.405 388.677 318.797 394.291 318.797C402.625 318.797 408.758 313.371 408.758 305.964C408.789 290.903 386.428 291.054 386.428 281.961ZM325.42 308.804C321.616 302.917 318.849 298.541 314.335 295.693C319.654 293.688 322.645 289.583 322.645 284.117C322.645 275.938 316.36 270.87 306.296 270.87H293.728V318.185H300.881V297.634H303.88C307.532 297.634 310.523 298.748 317.094 308.454L323.37 318.177H331.768L328.075 312.671C327.152 311.409 326.266 310.12 325.42 308.804ZM305.483 291.54H300.897V276.686H305.491C312.429 276.686 315.204 279.391 315.284 283.83C315.34 287.808 313.162 291.532 305.491 291.532L305.483 291.54Z" fill="black"></path></svg>