<svg xmlns="http://www.w3.org/2000/svg" width="605" height="345" viewBox="0 0 605 345" fill="none"><path d="M27.9886 183.104C27.9886 172.111 17.9576 170.471 11.9774 170.471H10.2226V194.688H14.3067C23.0028 194.688 27.9886 190.466 27.9886 183.104ZM10.2226 167.324H14.1128C20.449 167.324 23.6598 164.388 23.6598 158.598C23.6598 153.263 20.4835 150.324 14.7127 150.324H10.2218L10.2226 167.324ZM21.2386 168.665C29.1195 169.818 37.1435 174.283 37.1435 183.631C37.1435 188.659 34.573 192.459 29.5031 194.928C24.4424 197.391 18.4649 197.76 15.3519 197.76H0V196.794C2.0314 195.813 1.97129 192.538 1.97129 190.224V154.712C1.97129 152.398 2.0314 149.123 0 148.142V147.176H12.4064C18.9815 147.176 23.8122 147.97 26.7635 149.532C30.1717 151.319 32.2907 154.677 32.2907 158.297C32.2907 163.047 28.6716 166.444 21.2386 168.665ZM87.0079 172.468C87.0079 159.586 80.5391 149.142 69.7941 149.142C59.0488 149.142 52.5811 159.585 52.5811 172.468C52.5811 185.351 59.0488 195.794 69.7941 195.794C80.5391 195.794 87.0079 185.351 87.0079 172.468ZM69.7941 146C84.6973 146 96.7798 157.85 96.7798 172.468C96.7798 187.086 84.6973 198.935 69.7941 198.935C54.8902 198.935 42.8092 187.086 42.8092 172.468C42.8092 157.85 54.8898 146 69.7941 146ZM98.5064 152.658V147.096H130.308V152.658H129.367C127.721 150.152 124.87 150.172 122.599 150.174H118.493V190.226H118.49C118.49 192.543 118.431 195.824 120.442 196.808V197.775H108.373V196.808C110.384 195.824 110.325 192.543 110.325 190.225H110.321V150.173H106.216C103.944 150.172 101.093 150.152 99.4469 152.658H98.5064ZM138.84 152.658V147.096H170.641V152.658H169.701C168.054 150.152 165.204 150.172 162.931 150.174H158.826V190.226H158.824C158.824 192.543 158.764 195.824 160.776 196.808V197.775H148.706V196.808C150.717 195.824 150.658 192.543 150.658 190.225H150.655V150.173H146.55C144.277 150.172 141.427 150.152 139.78 152.658H138.84ZM205.973 194.698C208.248 194.699 211.187 194.688 212.748 192.213H213.689V197.775H179.561V196.823C182.112 195.152 182.094 192.132 182.093 189.759V155.113C182.094 152.74 182.112 149.719 179.561 148.049V147.096H211.593V152.659H210.652C209.028 150.163 206.152 150.173 203.877 150.173H190.198V170.19H201.667C203.976 170.19 207.278 170.218 208.176 168.216H209.132V175.239H208.176C207.278 173.235 203.976 173.265 201.667 173.265H190.198V194.698L205.973 194.698ZM258.854 175.069V174.133H271.623C271.199 179.682 270.582 182.758 268.179 186.833C263.537 194.638 255.694 198.935 246.093 198.935C238.772 198.935 231.921 196.352 226.802 191.665C221.53 186.836 218.626 180.178 218.626 172.92C218.626 164.782 222.927 156.276 229.582 151.249C234.114 147.815 239.745 146 245.867 146C249.11 146 252.31 146.435 255.136 147.215C255.701 147.372 257.391 147.833 259.296 148.049C260.986 148.227 263.447 148.2 264.501 147.192H265.438V158.848L264.501 159.005C264.196 158.463 263.865 157.936 263.51 157.425C259.663 151.938 254.226 149.157 246.773 149.157C240.434 149.157 235.559 151.522 232.285 156.19C229.455 160.226 228.254 165.854 228.254 172.467C228.254 178.69 229.456 184.358 232.175 188.428C235.354 193.187 240.166 195.703 246.094 195.703C253.871 195.703 262.197 189.498 262.197 180.257C262.197 175.555 258.855 175.07 258.855 175.07M301.199 178.223L293.318 157.635L285.437 178.223H301.199ZM315.03 191.435C315.537 192.672 316.929 196.085 318.753 196.762V197.759H305.144V196.774C306.905 195.949 307.359 194.44 306.618 192.463L302.419 181.295H284.292L280.045 192.462C279.306 194.438 279.73 195.912 281.518 196.771V197.759H272.819V196.747C274.805 196.185 276.475 193.109 277.107 191.351L294.068 147.176H297.906L297.962 147.317L315.03 191.435ZM379.147 148.091V147.1L387.821 147.096V148.111C385.913 148.637 384.214 151.632 383.571 153.514L368.308 197.775H364.12L349.168 153.422C348.485 151.397 347.194 148.761 345.548 148.094V147.096H359.035V148.084C356.54 149.28 357.228 151.976 357.616 153.043L368.829 186.564L380.733 152.044C381.126 150.812 381.181 149.069 379.147 148.091M421.602 194.698C423.877 194.699 426.816 194.688 428.377 192.213H429.317V197.775H395.189V196.823C397.74 195.152 397.722 192.132 397.722 189.759V155.113C397.722 152.74 397.74 149.719 395.189 148.049V147.096H427.222V152.659H426.28C424.656 150.163 421.78 150.173 419.505 150.173H405.825V170.19H417.295C419.604 170.19 422.907 170.218 423.805 168.216H424.759V175.239H423.805C422.907 173.235 419.604 173.265 417.295 173.265H405.825V194.698H421.601M469.4 148.046V147.096H475.856V148.046C474.246 149.081 474.26 152.234 474.264 153.235V197.775H472.141L443.2 156.196V191.637C443.196 192.638 443.182 195.79 444.792 196.825V197.775H438.337V196.825C439.947 195.79 439.933 192.638 439.929 191.637L439.928 154.902C439.929 152.599 439.94 149.654 437.462 148.05V147.096H447.43L447.496 147.19L470.993 180.909V153.234C470.997 152.233 471.01 149.081 469.4 148.046ZM511.963 194.697C514.238 194.698 517.178 194.688 518.738 192.212H519.679V197.774H485.551V196.822C488.102 195.152 488.084 192.132 488.083 189.758V155.113C488.084 152.74 488.102 149.719 485.551 148.049V147.096H517.584V152.659H516.642C515.017 150.163 512.143 150.173 509.867 150.173H496.188V170.19H507.657C509.966 170.19 513.268 170.218 514.167 168.216H515.121V175.239H514.167C513.268 173.235 509.967 173.265 507.657 173.265H496.188V194.698H511.963M526.66 152.658V147.096H558.462V152.658H557.52C555.875 150.152 553.024 150.172 550.752 150.174H546.647V190.226H546.643C546.643 192.543 546.585 195.824 548.596 196.808V197.775H536.527V196.808C538.538 195.824 538.479 192.543 538.479 190.225H538.475V150.173H534.37C532.098 150.172 529.247 150.152 527.601 152.658H526.66M587.511 178.202L579.66 157.575L571.809 178.202H587.511ZM601.291 191.438C601.796 192.678 603.183 196.099 605 196.776V197.775H591.442V196.788C593.196 195.962 593.649 194.449 592.91 192.469L588.726 181.279H570.667L566.438 192.467C565.699 194.447 566.123 195.924 567.905 196.785V197.775H559.237V196.76C561.216 196.198 562.88 193.117 563.511 191.354L580.408 147.096H584.232L584.286 147.237L601.291 191.438Z" fill="black"></path><mask id="mask0_592_578" style="mask-type:luminance" maskUnits="userSpaceOnUse" x="0" y="146" width="605" height="53"><path d="M27.9886 183.104C27.9886 172.111 17.9576 170.471 11.9774 170.471H10.2226V194.688H14.3067C23.0028 194.688 27.9886 190.466 27.9886 183.104ZM10.2226 167.324H14.1128C20.449 167.324 23.6598 164.388 23.6598 158.598C23.6598 153.263 20.4835 150.324 14.7127 150.324H10.2218L10.2226 167.324ZM21.2386 168.665C29.1195 169.818 37.1435 174.283 37.1435 183.631C37.1435 188.659 34.573 192.459 29.5031 194.928C24.4424 197.391 18.4649 197.76 15.3519 197.76H0V196.794C2.0314 195.813 1.97129 192.538 1.97129 190.224V154.712C1.97129 152.398 2.0314 149.123 0 148.142V147.176H12.4064C18.9815 147.176 23.8122 147.97 26.7635 149.532C30.1717 151.319 32.2907 154.677 32.2907 158.297C32.2907 163.047 28.6716 166.444 21.2386 168.665ZM87.0079 172.468C87.0079 159.586 80.5391 149.142 69.7941 149.142C59.0488 149.142 52.5811 159.585 52.5811 172.468C52.5811 185.351 59.0488 195.794 69.7941 195.794C80.5391 195.794 87.0079 185.351 87.0079 172.468ZM69.7941 146C84.6973 146 96.7798 157.85 96.7798 172.468C96.7798 187.086 84.6973 198.935 69.7941 198.935C54.8902 198.935 42.8092 187.086 42.8092 172.468C42.8092 157.85 54.8898 146 69.7941 146ZM98.5064 152.658V147.096H130.308V152.658H129.367C127.721 150.152 124.87 150.172 122.599 150.174H118.493V190.226H118.49C118.49 192.543 118.431 195.824 120.442 196.808V197.775H108.373V196.808C110.384 195.824 110.325 192.543 110.325 190.225H110.321V150.173H106.216C103.944 150.172 101.093 150.152 99.4469 152.658H98.5064ZM138.84 152.658V147.096H170.641V152.658H169.701C168.054 150.152 165.204 150.172 162.931 150.174H158.826V190.226H158.824C158.824 192.543 158.764 195.824 160.776 196.808V197.775H148.706V196.808C150.717 195.824 150.658 192.543 150.658 190.225H150.655V150.173H146.55C144.277 150.172 141.427 150.152 139.78 152.658H138.84ZM205.973 194.698C208.248 194.699 211.187 194.688 212.748 192.213H213.689V197.775H179.561V196.823C182.112 195.152 182.094 192.132 182.093 189.759V155.113C182.094 152.74 182.112 149.719 179.561 148.049V147.096H211.593V152.659H210.652C209.028 150.163 206.152 150.173 203.877 150.173H190.198V170.19H201.667C203.976 170.19 207.278 170.218 208.176 168.216H209.132V175.239H208.176C207.278 173.235 203.976 173.265 201.667 173.265H190.198V194.698L205.973 194.698ZM258.854 175.069V174.133H271.623C271.199 179.682 270.582 182.758 268.179 186.833C263.537 194.638 255.694 198.935 246.093 198.935C238.772 198.935 231.921 196.352 226.802 191.665C221.53 186.836 218.626 180.178 218.626 172.92C218.626 164.782 222.927 156.276 229.582 151.249C234.114 147.815 239.745 146 245.867 146C249.11 146 252.31 146.435 255.136 147.215C255.701 147.372 257.391 147.833 259.296 148.049C260.986 148.227 263.447 148.2 264.501 147.192H265.438V158.848L264.501 159.005C264.196 158.463 263.865 157.936 263.51 157.425C259.663 151.938 254.226 149.157 246.773 149.157C240.434 149.157 235.559 151.522 232.285 156.19C229.455 160.226 228.254 165.854 228.254 172.467C228.254 178.69 229.456 184.358 232.175 188.428C235.354 193.187 240.166 195.703 246.094 195.703C253.871 195.703 262.197 189.498 262.197 180.257C262.197 175.555 258.855 175.07 258.855 175.07M301.199 178.223L293.318 157.635L285.437 178.223H301.199ZM315.03 191.435C315.537 192.672 316.929 196.085 318.753 196.762V197.759H305.144V196.774C306.905 195.949 307.359 194.44 306.618 192.463L302.419 181.295H284.292L280.045 192.462C279.306 194.438 279.73 195.912 281.518 196.771V197.759H272.819V196.747C274.805 196.185 276.475 193.109 277.107 191.351L294.068 147.176H297.906L297.962 147.317L315.03 191.435ZM379.147 148.091V147.1L387.821 147.096V148.111C385.913 148.637 384.214 151.632 383.571 153.514L368.308 197.775H364.12L349.168 153.422C348.485 151.397 347.194 148.761 345.548 148.094V147.096H359.035V148.084C356.54 149.28 357.228 151.976 357.616 153.043L368.829 186.564L380.733 152.044C381.126 150.812 381.181 149.069 379.147 148.091M421.602 194.698C423.877 194.699 426.816 194.688 428.377 192.213H429.317V197.775H395.189V196.823C397.74 195.152 397.722 192.132 397.722 189.759V155.113C397.722 152.74 397.74 149.719 395.189 148.049V147.096H427.222V152.659H426.28C424.656 150.163 421.78 150.173 419.505 150.173H405.825V170.19H417.295C419.604 170.19 422.907 170.218 423.805 168.216H424.759V175.239H423.805C422.907 173.235 419.604 173.265 417.295 173.265H405.825V194.698H421.601M469.4 148.046V147.096H475.856V148.046C474.246 149.081 474.26 152.234 474.264 153.235V197.775H472.141L443.2 156.196V191.637C443.196 192.638 443.182 195.79 444.792 196.825V197.775H438.337V196.825C439.947 195.79 439.933 192.638 439.929 191.637L439.928 154.902C439.929 152.599 439.94 149.654 437.462 148.05V147.096H447.43L447.496 147.19L470.993 180.909V153.234C470.997 152.233 471.01 149.081 469.4 148.046ZM511.963 194.697C514.238 194.698 517.178 194.688 518.738 192.212H519.679V197.774H485.551V196.822C488.102 195.152 488.084 192.132 488.083 189.758V155.113C488.084 152.74 488.102 149.719 485.551 148.049V147.096H517.584V152.659H516.642C515.017 150.163 512.143 150.173 509.867 150.173H496.188V170.19H507.657C509.966 170.19 513.268 170.218 514.167 168.216H515.121V175.239H514.167C513.268 173.235 509.967 173.265 507.657 173.265H496.188V194.698H511.963M526.66 152.658V147.096H558.462V152.658H557.52C555.875 150.152 553.024 150.172 550.752 150.174H546.647V190.226H546.643C546.643 192.543 546.585 195.824 548.596 196.808V197.775H536.527V196.808C538.538 195.824 538.479 192.543 538.479 190.225H538.475V150.173H534.37C532.098 150.172 529.247 150.152 527.601 152.658H526.66M587.511 178.202L579.66 157.575L571.809 178.202H587.511ZM601.291 191.438C601.796 192.678 603.183 196.099 605 196.776V197.775H591.442V196.788C593.196 195.962 593.649 194.449 592.91 192.469L588.726 181.279H570.667L566.438 192.467C565.699 194.447 566.123 195.924 567.905 196.785V197.775H559.237V196.76C561.216 196.198 562.88 193.117 563.511 191.354L580.408 147.096H584.232L584.286 147.237L601.291 191.438Z" fill="white"></path></mask><g mask="url(#mask0_592_578)"><path d="M0 145.934H605V198.934H0V145.934Z" fill="black"></path></g></svg>