<svg xmlns="http://www.w3.org/2000/svg" width="605" height="53" viewBox="0 0 605 53" fill="none"><g clip-path="url(#clip0_592_578)"><path d="M27.9886 37.1699C27.9886 26.1769 17.9576 24.5362 11.9774 24.5362H10.2226V48.7533H14.3067C23.0028 48.7533 27.9886 44.5319 27.9886 37.1699ZM10.2226 21.3895H14.1128C20.449 21.3895 23.6598 18.454 23.6598 12.6638C23.6598 7.32861 20.4835 4.39001 14.7127 4.39001H10.2218L10.2226 21.3895ZM21.2386 22.7303C29.1195 23.884 37.1435 28.3491 37.1435 37.6968C37.1435 42.7245 34.573 46.5242 29.5031 48.9932C24.4424 51.4571 18.4649 51.8254 15.3519 51.8254H0V50.8598C2.0314 49.8787 1.97129 46.6039 1.97129 44.2893V8.7774C1.97129 6.46359 2.0314 3.18842 0 2.20734V1.24173H12.4064C18.9815 1.24173 23.8122 2.03596 26.7635 3.59772C30.1717 5.38424 32.2907 8.74297 32.2907 12.3624C32.2907 17.1131 28.6716 20.5101 21.2386 22.7303ZM87.0079 26.534C87.0079 13.6515 80.5391 3.20776 69.7941 3.20776C59.0488 3.20776 52.5811 13.6511 52.5811 26.534C52.5811 39.4164 59.0488 49.8598 69.7941 49.8598C80.5391 49.8598 87.0079 39.4164 87.0079 26.534ZM69.7941 0.0656738C84.6973 0.0656738 96.7798 11.916 96.7798 26.5336C96.7798 41.1515 84.6973 53.0011 69.7941 53.0011C54.8902 53.0011 42.8092 41.1515 42.8092 26.5336C42.8092 11.916 54.8898 0.0656738 69.7941 0.0656738ZM98.5064 6.72394V1.16165H130.308V6.72394H129.367C127.721 4.21747 124.87 4.23797 122.599 4.23952H118.493V44.2913H118.49C118.49 46.609 118.431 49.8899 120.442 50.8741V51.8405H108.373V50.8741C110.384 49.8899 110.325 46.609 110.325 44.2909H110.321V4.23913H106.216C103.944 4.23797 101.093 4.21747 99.4469 6.72394H98.5064ZM138.84 6.72394V1.16165H170.641V6.72394H169.701C168.054 4.21747 165.204 4.23797 162.931 4.23952H158.826V44.2913H158.824C158.824 46.609 158.764 49.8899 160.776 50.8741V51.8405H148.706V50.8741C150.717 49.8899 150.658 46.609 150.658 44.2909H150.655V4.23913H146.55C144.277 4.23797 141.427 4.21747 139.78 6.72394H138.84ZM205.973 48.7638C208.248 48.7646 211.187 48.7541 212.748 46.2782H213.689V51.8405H179.561V50.8884C182.112 49.218 182.094 46.1977 182.093 43.8243V9.17858C182.094 6.80557 182.112 3.78496 179.561 2.11449V1.16204H211.593V6.72433H210.652C209.028 4.22908 206.152 4.23836 203.877 4.23913H190.198V24.2553H201.667C203.976 24.2553 207.278 24.284 208.176 22.2816H209.132V29.3047H208.176C207.278 27.3011 203.976 27.3305 201.667 27.3305H190.198V48.7634L205.973 48.7638ZM258.854 29.1348V28.1982H271.623C271.199 33.7478 270.582 36.8241 268.179 40.8989C263.537 48.7038 255.694 53.0011 246.093 53.0011C238.772 53.0011 231.921 50.418 226.802 45.7304C221.53 40.9012 218.626 34.2441 218.626 26.9854C218.626 18.8474 222.927 10.3415 229.582 5.31422C234.114 1.88083 239.745 0.0656738 245.867 0.0656738C249.11 0.0656738 252.31 0.500506 255.136 1.28081C255.701 1.43787 257.391 1.89824 259.296 2.11488C260.986 2.29283 263.447 2.26537 264.501 1.25759H265.438V12.9137L264.501 13.0708C264.196 12.5287 263.865 12.0013 263.51 11.4905C259.663 6.00399 254.226 3.22246 246.773 3.22246C240.434 3.22246 235.559 5.58812 232.285 10.2556C229.455 14.2913 228.254 19.9194 228.254 26.5328C228.254 32.7558 229.456 38.4234 232.175 42.4939C235.354 47.2523 240.166 49.7685 246.094 49.7685C253.871 49.7685 262.197 43.5632 262.197 34.323C262.197 29.6203 258.855 29.1352 258.855 29.1352M301.199 32.2889L293.318 11.7009L285.437 32.2889H301.199ZM315.03 45.5002C315.537 46.7374 316.929 50.1511 318.753 50.8273V51.8242H305.144V50.8393C306.905 50.0145 307.359 48.5057 306.618 46.5289L302.419 35.361H284.292L280.045 46.5273C279.306 48.5038 279.73 49.9774 281.518 50.8362V51.8242H272.819V50.8122C274.805 50.2505 276.475 47.1749 277.107 45.4163L294.068 1.24173H297.906L297.962 1.38255L315.03 45.5002ZM379.147 2.15627V1.16591L387.821 1.16204V2.17678C385.913 2.70291 384.214 5.69799 383.571 7.57929L368.308 51.8405H364.12L349.168 7.48722C348.485 5.46278 347.194 2.8267 345.548 2.16014V1.16204H359.035V2.15008C356.54 3.34548 357.228 6.04152 357.616 7.10848L368.829 40.6292L380.733 6.10961C381.126 4.87746 381.181 3.13464 379.147 2.15627M421.602 48.7638C423.877 48.7646 426.816 48.7541 428.377 46.2782H429.317V51.8405H395.189V50.8884C397.74 49.218 397.722 46.1977 397.722 43.8243V9.17858C397.722 6.80557 397.74 3.78496 395.189 2.11449V1.16204H427.222V6.72433H426.28C424.656 4.22908 421.78 4.23836 419.505 4.23913H405.825V24.2553H417.295C419.604 24.2553 422.907 24.284 423.805 22.2816H424.759V29.3047H423.805C422.907 27.3011 419.604 27.3305 417.295 27.3305H405.825V48.7634H421.601M469.4 2.11178V1.16165H475.856V2.11217C474.246 3.14664 474.26 6.29956 474.264 7.30075V51.8409H472.141L443.2 10.2614V45.7025C443.196 46.7037 443.182 49.8559 444.792 50.8904V51.8409H438.337V50.8904C439.947 49.8559 439.933 46.7037 439.929 45.7025L439.928 8.96813C439.929 6.66475 439.94 3.71997 437.462 2.11527V1.16165H447.43L447.496 1.25605L470.993 34.9749V7.29998C470.997 6.29878 471.01 3.14625 469.4 2.11178ZM511.963 48.763C514.238 48.7642 517.178 48.7537 518.738 46.2778H519.679V51.8401H485.551V50.888C488.102 49.2176 488.084 46.1973 488.083 43.8239V9.17858C488.084 6.80557 488.102 3.78496 485.551 2.11449V1.16204H517.584V6.72433H516.642C515.017 4.22908 512.143 4.23836 509.867 4.23913H496.188V24.2553H507.657C509.966 24.2553 513.268 24.284 514.167 22.2816H515.121V29.3047H514.167C513.268 27.3011 509.967 27.3305 507.657 27.3305H496.188V48.7634H511.963M526.66 6.72356V1.16165H558.462V6.72394H557.52C555.875 4.21747 553.024 4.23797 550.752 4.23952H546.647V44.2913H546.643C546.643 46.609 546.585 49.8899 548.596 50.8741V51.8405H536.527V50.8741C538.538 49.8899 538.479 46.609 538.479 44.2909H538.475V4.23913H534.37C532.098 4.23797 529.247 4.21747 527.601 6.72394H526.66M587.511 32.2676L579.66 11.6406L571.809 32.2676H587.511ZM601.291 45.5037C601.796 46.7432 603.183 50.1642 605 50.8416V51.8405H591.442V50.854C593.196 50.0273 593.649 48.515 592.91 46.5351L588.726 35.3451H570.667L566.438 46.5331C565.699 48.5127 566.123 49.9894 567.905 50.8505V51.8409H559.237V50.8258C561.216 50.2636 562.88 47.1823 563.511 45.4194L580.408 1.16165H584.232L584.286 1.30247L601.291 45.5037Z" fill="black"></path><mask id="mask0_592_578" style="mask-type:luminance" maskUnits="userSpaceOnUse" x="0" y="0" width="605" height="54"><path d="M27.9886 37.1699C27.9886 26.1769 17.9576 24.5362 11.9774 24.5362H10.2226V48.7533H14.3067C23.0028 48.7533 27.9886 44.5319 27.9886 37.1699ZM10.2226 21.3895H14.1128C20.449 21.3895 23.6598 18.454 23.6598 12.6638C23.6598 7.32861 20.4835 4.39001 14.7127 4.39001H10.2218L10.2226 21.3895ZM21.2386 22.7303C29.1195 23.884 37.1435 28.3491 37.1435 37.6968C37.1435 42.7245 34.573 46.5242 29.5031 48.9932C24.4424 51.4571 18.4649 51.8254 15.3519 51.8254H0V50.8598C2.0314 49.8787 1.97129 46.6039 1.97129 44.2893V8.7774C1.97129 6.46359 2.0314 3.18842 0 2.20734V1.24173H12.4064C18.9815 1.24173 23.8122 2.03596 26.7635 3.59772C30.1717 5.38424 32.2907 8.74297 32.2907 12.3624C32.2907 17.1131 28.6716 20.5101 21.2386 22.7303ZM87.0079 26.534C87.0079 13.6515 80.5391 3.20776 69.7941 3.20776C59.0488 3.20776 52.5811 13.6511 52.5811 26.534C52.5811 39.4164 59.0488 49.8598 69.7941 49.8598C80.5391 49.8598 87.0079 39.4164 87.0079 26.534ZM69.7941 0.0656738C84.6973 0.0656738 96.7798 11.916 96.7798 26.5336C96.7798 41.1515 84.6973 53.0011 69.7941 53.0011C54.8902 53.0011 42.8092 41.1515 42.8092 26.5336C42.8092 11.916 54.8898 0.0656738 69.7941 0.0656738ZM98.5064 6.72394V1.16165H130.308V6.72394H129.367C127.721 4.21747 124.87 4.23797 122.599 4.23952H118.493V44.2913H118.49C118.49 46.609 118.431 49.8899 120.442 50.8741V51.8405H108.373V50.8741C110.384 49.8899 110.325 46.609 110.325 44.2909H110.321V4.23913H106.216C103.944 4.23797 101.093 4.21747 99.4469 6.72394H98.5064ZM138.84 6.72394V1.16165H170.641V6.72394H169.701C168.054 4.21747 165.204 4.23797 162.931 4.23952H158.826V44.2913H158.824C158.824 46.609 158.764 49.8899 160.776 50.8741V51.8405H148.706V50.8741C150.717 49.8899 150.658 46.609 150.658 44.2909H150.655V4.23913H146.55C144.277 4.23797 141.427 4.21747 139.78 6.72394H138.84ZM205.973 48.7638C208.248 48.7646 211.187 48.7541 212.748 46.2782H213.689V51.8405H179.561V50.8884C182.112 49.218 182.094 46.1977 182.093 43.8243V9.17858C182.094 6.80557 182.112 3.78496 179.561 2.11449V1.16204H211.593V6.72433H210.652C209.028 4.22908 206.152 4.23836 203.877 4.23913H190.198V24.2553H201.667C203.976 24.2553 207.278 24.284 208.176 22.2816H209.132V29.3047H208.176C207.278 27.3011 203.976 27.3305 201.667 27.3305H190.198V48.7634L205.973 48.7638ZM258.854 29.1348V28.1982H271.623C271.199 33.7478 270.582 36.8241 268.179 40.8989C263.537 48.7038 255.694 53.0011 246.093 53.0011C238.772 53.0011 231.921 50.418 226.802 45.7304C221.53 40.9012 218.626 34.2441 218.626 26.9854C218.626 18.8474 222.927 10.3415 229.582 5.31422C234.114 1.88083 239.745 0.0656738 245.867 0.0656738C249.11 0.0656738 252.31 0.500506 255.136 1.28081C255.701 1.43787 257.391 1.89824 259.296 2.11488C260.986 2.29283 263.447 2.26537 264.501 1.25759H265.438V12.9137L264.501 13.0708C264.196 12.5287 263.865 12.0013 263.51 11.4905C259.663 6.00399 254.226 3.22246 246.773 3.22246C240.434 3.22246 235.559 5.58812 232.285 10.2556C229.455 14.2913 228.254 19.9194 228.254 26.5328C228.254 32.7558 229.456 38.4234 232.175 42.4939C235.354 47.2523 240.166 49.7685 246.094 49.7685C253.871 49.7685 262.197 43.5632 262.197 34.323C262.197 29.6203 258.855 29.1352 258.855 29.1352M301.199 32.2889L293.318 11.7009L285.437 32.2889H301.199ZM315.03 45.5002C315.537 46.7374 316.929 50.1511 318.753 50.8273V51.8242H305.144V50.8393C306.905 50.0145 307.359 48.5057 306.618 46.5289L302.419 35.361H284.292L280.045 46.5273C279.306 48.5038 279.73 49.9774 281.518 50.8362V51.8242H272.819V50.8122C274.805 50.2505 276.475 47.1749 277.107 45.4163L294.068 1.24173H297.906L297.962 1.38255L315.03 45.5002ZM379.147 2.15627V1.16591L387.821 1.16204V2.17678C385.913 2.70291 384.214 5.69799 383.571 7.57929L368.308 51.8405H364.12L349.168 7.48722C348.485 5.46278 347.194 2.8267 345.548 2.16014V1.16204H359.035V2.15008C356.54 3.34548 357.228 6.04152 357.616 7.10848L368.829 40.6292L380.733 6.10961C381.126 4.87746 381.181 3.13464 379.147 2.15627M421.602 48.7638C423.877 48.7646 426.816 48.7541 428.377 46.2782H429.317V51.8405H395.189V50.8884C397.74 49.218 397.722 46.1977 397.722 43.8243V9.17858C397.722 6.80557 397.74 3.78496 395.189 2.11449V1.16204H427.222V6.72433H426.28C424.656 4.22908 421.78 4.23836 419.505 4.23913H405.825V24.2553H417.295C419.604 24.2553 422.907 24.284 423.805 22.2816H424.759V29.3047H423.805C422.907 27.3011 419.604 27.3305 417.295 27.3305H405.825V48.7634H421.601M469.4 2.11178V1.16165H475.856V2.11217C474.246 3.14664 474.26 6.29956 474.264 7.30075V51.8409H472.141L443.2 10.2614V45.7025C443.196 46.7037 443.182 49.8559 444.792 50.8904V51.8409H438.337V50.8904C439.947 49.8559 439.933 46.7037 439.929 45.7025L439.928 8.96813C439.929 6.66475 439.94 3.71997 437.462 2.11527V1.16165H447.43L447.496 1.25605L470.993 34.9749V7.29998C470.997 6.29878 471.01 3.14625 469.4 2.11178ZM511.963 48.763C514.238 48.7642 517.178 48.7537 518.738 46.2778H519.679V51.8401H485.551V50.888C488.102 49.2176 488.084 46.1973 488.083 43.8239V9.17858C488.084 6.80557 488.102 3.78496 485.551 2.11449V1.16204H517.584V6.72433H516.642C515.017 4.22908 512.143 4.23836 509.867 4.23913H496.188V24.2553H507.657C509.966 24.2553 513.268 24.284 514.167 22.2816H515.121V29.3047H514.167C513.268 27.3011 509.967 27.3305 507.657 27.3305H496.188V48.7634H511.963M526.66 6.72356V1.16165H558.462V6.72394H557.52C555.875 4.21747 553.024 4.23797 550.752 4.23952H546.647V44.2913H546.643C546.643 46.609 546.585 49.8899 548.596 50.8741V51.8405H536.527V50.8741C538.538 49.8899 538.479 46.609 538.479 44.2909H538.475V4.23913H534.37C532.098 4.23797 529.247 4.21747 527.601 6.72394H526.66M587.511 32.2676L579.66 11.6406L571.809 32.2676H587.511ZM601.291 45.5037C601.796 46.7432 603.183 50.1642 605 50.8416V51.8405H591.442V50.854C593.196 50.0273 593.649 48.515 592.91 46.5351L588.726 35.3451H570.667L566.438 46.5331C565.699 48.5127 566.123 49.9894 567.905 50.8505V51.8409H559.237V50.8258C561.216 50.2636 562.88 47.1823 563.511 45.4194L580.408 1.16165H584.232L584.286 1.30247L601.291 45.5037Z" fill="white"></path></mask><g mask="url(#mask0_592_578)"><path d="M0 0H605V53H0V0Z" fill="black"></path></g></g><defs><clipPath id="clip0_592_578"><rect width="605" height="53" fill="white"></rect></clipPath></defs></svg>