<svg xmlns="http://www.w3.org/2000/svg" width="605" height="71" viewBox="0 0 605 71" fill="none"><g clip-path="url(#clip0_592_566)"><path fill-rule="evenodd" clip-rule="evenodd" d="M7.39707 60.4212H25.1373V67.1205H0.210846V2.76001H7.39707V60.4212ZM62.871 8.34674C77.6941 8.34674 89.1459 20.4137 89.1459 34.9419C89.1459 49.4702 77.467 61.5406 62.871 61.5406C48.0479 61.5406 36.369 49.4736 36.369 34.9419C36.369 20.4137 48.0479 8.34674 62.871 8.34674ZM62.871 1.6406C44.4531 1.6406 29.1828 16.6139 29.1828 34.9419C29.1828 53.4891 44.4531 68.2399 62.871 68.2399C81.2855 68.2399 96.5558 53.4891 96.5558 34.9419C96.5558 16.6139 81.2855 1.6406 62.871 1.6406ZM113.175 40.9737C113.175 45.8963 113.175 51.2571 116.095 55.502C119.016 59.2983 124.406 61.5406 129.123 61.5406C133.839 61.5406 138.779 59.5277 141.699 55.9504C145.291 51.7056 145.067 46.1154 145.067 40.9737V2.76001H152.253V42.9832C152.253 50.1377 151.579 55.4985 146.412 60.8628C142.146 65.556 135.634 68.2364 129.123 68.2364C123.058 68.2364 116.769 66.0045 112.504 61.7562C106.663 56.3954 105.988 50.3568 105.988 42.9832V2.76001H113.175V40.9737ZM165.054 2.76001H172.24V67.1205H165.054V2.76001ZM214.69 15.272C212.22 10.8046 209.076 8.34674 203.685 8.34674C197.844 8.34674 192.904 12.3691 192.904 18.4042C192.904 23.7685 198.518 26.4489 203.011 28.4617L207.28 30.2487C215.591 34.0485 222.774 38.0708 222.774 48.3474C222.774 59.5277 213.792 68.2399 202.564 68.2399C192.006 68.2399 184.373 61.5406 182.354 51.4831L189.313 49.6927C190.211 56.1729 195.377 61.5406 202.34 61.5406C209.303 61.5406 215.591 56.3989 215.591 49.0252C215.591 41.4222 209.75 38.9677 203.689 36.2839L199.643 34.4969C192.233 31.1456 185.721 27.3458 185.721 18.1817C185.721 8.12423 194.256 1.64402 203.689 1.64402C210.875 1.64402 216.94 5.44384 220.531 11.7015L214.69 15.272ZM280.043 51.9247L298.458 2.76001H306.091L280.043 70.9271L253.765 2.76001H261.402L280.043 51.9247ZM320.24 40.9737C320.24 45.8963 320.02 51.2571 322.934 55.502C325.858 59.2983 331.245 61.5406 335.961 61.5406C340.677 61.5406 345.844 59.5277 348.761 55.9504C352.133 51.7056 351.906 46.1154 351.906 40.9737V2.76001H359.095V42.9832C359.095 50.1377 358.645 55.4985 353.478 60.8628C348.989 65.556 342.473 68.2364 335.961 68.2364C329.9 68.2364 323.835 66.0045 319.339 61.7562C313.728 56.3954 313.057 50.3568 313.057 42.9832V2.76001H320.24V40.9737ZM372.123 2.76001H379.306V67.1205H372.123V2.76001ZM409.399 67.1205H402.216V9.46273H386.715V2.76001H425.35V9.46273H409.399V67.1205ZM449.826 67.1205H442.636V9.46273H426.922V2.76001H465.547V9.46273H449.826V67.1205ZM503.281 8.34674C518.104 8.34674 529.779 20.4137 529.779 34.9419C529.779 49.4702 518.1 61.5406 503.281 61.5406C488.681 61.5406 476.775 49.4736 476.775 34.9419C476.775 20.4137 488.454 8.34674 503.281 8.34674ZM503.281 1.6406C484.863 1.6406 469.593 16.6139 469.593 34.9419C469.593 53.4891 484.863 68.2399 503.281 68.2399C521.692 68.2399 536.962 53.4891 536.962 34.9419C536.962 16.6139 521.692 1.6406 503.281 1.6406ZM547.296 0.0761719L597.599 52.5991V2.76001H604.789V70.0302L554.486 17.5108V67.1205H547.296V0.0761719Z" fill="black"></path></g><defs><clipPath id="clip0_592_566"><rect width="605" height="71" fill="white"></rect></clipPath></defs></svg>