<svg xmlns="http://www.w3.org/2000/svg" width="605" height="345" viewBox="0 0 605 345" fill="none"><path fill-rule="evenodd" clip-rule="evenodd" d="M7.39704 197.345H25.1373V204.044H0.210815V139.684H7.39704V197.345ZM62.871 145.271C77.694 145.271 89.1459 157.337 89.1459 171.866C89.1459 186.394 77.467 198.464 62.871 198.464C48.0479 198.464 36.369 186.397 36.369 171.866C36.369 157.337 48.0479 145.271 62.871 145.271ZM62.871 138.564C44.453 138.564 29.1827 153.538 29.1827 171.866C29.1827 190.413 44.453 205.164 62.871 205.164C81.2854 205.164 96.5557 190.413 96.5557 171.866C96.5557 153.538 81.2854 138.564 62.871 138.564ZM113.174 177.898C113.174 182.82 113.175 188.181 116.095 192.426C119.016 196.222 124.406 198.464 129.122 198.464C133.839 198.464 138.779 196.452 141.699 192.874C145.291 188.629 145.067 183.039 145.067 177.898V139.684H152.253V179.907C152.253 187.062 151.579 192.422 146.412 197.787C142.146 202.48 135.634 205.16 129.122 205.16C123.058 205.16 116.769 202.928 112.504 198.68C106.663 193.319 105.988 187.281 105.988 179.907V139.684H113.174V177.898ZM165.054 139.684H172.24V204.044H165.054V139.684ZM214.69 152.196C212.22 147.728 209.076 145.271 203.685 145.271C197.844 145.271 192.904 149.293 192.904 155.328C192.904 160.692 198.518 163.373 203.011 165.386L207.28 167.173C215.591 170.972 222.774 174.995 222.774 185.271C222.774 196.452 213.792 205.164 202.564 205.164C192.006 205.164 184.373 198.464 182.353 188.407L189.313 186.617C190.211 193.097 195.377 198.464 202.34 198.464C209.303 198.464 215.591 193.323 215.591 185.949C215.591 178.346 209.75 175.892 203.689 173.208L199.643 171.421C192.233 168.069 185.721 164.27 185.721 155.106C185.721 145.048 194.256 138.568 203.689 138.568C210.875 138.568 216.94 142.368 220.531 148.625L214.69 152.196ZM280.043 188.849L298.458 139.684H306.091L280.043 207.851L253.765 139.684H261.402L280.043 188.849ZM320.24 177.898C320.24 182.82 320.02 188.181 322.934 192.426C325.858 196.222 331.245 198.464 335.961 198.464C340.677 198.464 345.844 196.452 348.761 192.874C352.133 188.629 351.906 183.039 351.906 177.898V139.684H359.095V179.907C359.095 187.062 358.645 192.422 353.478 197.787C348.989 202.48 342.473 205.16 335.961 205.16C329.9 205.16 323.835 202.928 319.339 198.68C313.728 193.319 313.057 187.281 313.057 179.907V139.684H320.24V177.898ZM372.123 139.684H379.306V204.044H372.123V139.684ZM409.399 204.044H402.216V146.387H386.715V139.684H425.35V146.387H409.399V204.044ZM449.826 204.044H442.636V146.387H426.922V139.684H465.547V146.387H449.826V204.044ZM503.281 145.271C518.104 145.271 529.779 157.337 529.779 171.866C529.779 186.394 518.1 198.464 503.281 198.464C488.681 198.464 476.775 186.397 476.775 171.866C476.775 157.337 488.454 145.271 503.281 145.271ZM503.281 138.564C484.863 138.564 469.593 153.538 469.593 171.866C469.593 190.413 484.863 205.164 503.281 205.164C521.692 205.164 536.962 190.413 536.962 171.866C536.962 153.538 521.692 138.564 503.281 138.564ZM547.296 137L597.599 189.523V139.684H604.789V206.954L554.486 154.435V204.044H547.296V137Z" fill="black"></path></svg>