<svg xmlns="http://www.w3.org/2000/svg" width="605" height="94" viewBox="0 0 605 94" fill="none"><g clip-path="url(#clip0_592_570)"><path d="M10.9803 93.992H2.48692C1.77825 93.992 0.00524902 93.992 0.00524902 92.929C0.00524902 92.2247 0.360911 91.8659 1.42259 91.5098C9.21796 89.0249 10.9777 84.7727 10.9777 78.7532V15.2547C10.9777 9.57806 9.20469 5.32321 1.42259 2.49816C0.360911 2.49816 0.00524902 1.78858 0.00524902 1.43511C0.00524902 0.0186034 1.77825 0.372067 2.48692 0.372067H72.6134C88.5519 0.372067 101.661 13.1286 101.661 29.0983C101.661 45.0679 88.5519 57.8085 72.6134 57.8085H37.1932V79.4442C37.5488 85.1182 39.3165 89.0116 46.7483 91.5018C47.81 91.858 48.163 92.2141 48.163 92.921C48.163 93.9841 46.3926 93.9841 45.684 93.9841H10.9803V93.992ZM533.804 59.5891H550.451L533.804 31.2137L532.028 28.3754L517.165 59.5891H533.804ZM533.804 0.00797286H545.14L592.6 83.723C594.02 85.8491 595.785 87.9752 597.908 89.0382C599.678 90.46 601.802 90.8188 603.572 91.5231C604.283 91.8819 604.989 92.238 604.989 92.9449C604.989 94.008 603.219 94.008 602.508 94.008H560.359C559.653 94.008 557.522 94.008 557.522 92.9449C557.522 92.238 558.233 91.8819 558.947 91.5231C561.07 90.8188 562.482 89.7531 563.194 87.627C563.905 85.1395 563.194 83.7283 561.423 80.5285C559.019 75.41 556.541 70.3268 553.992 65.2791H514.319L513.969 65.986C513.611 67.4079 510.784 72.3643 508.661 77.6928C505.831 83.3669 504.767 84.7834 505.476 87.6217C505.834 89.7478 507.599 90.8109 509.722 91.5204C510.436 91.8792 510.784 92.2353 510.784 92.9396C510.784 94.0027 509.008 94.0027 508.302 94.0027H488.818C488.112 94.0027 486.336 94.0027 486.336 92.9396C486.336 92.2353 486.695 91.8766 487.754 91.5204C489.529 90.8135 491.647 90.4574 493.42 89.0356C495.544 87.9725 497.319 85.8464 498.729 83.7203L501.21 78.4051L528.132 21.9945L524.23 15.2547C520.695 9.57806 517.149 6.0328 513.252 3.90404C511.482 2.841 509.709 2.841 507.944 2.13141C506.882 1.77529 506.524 1.41917 506.882 0.709584C506.882 0 507.588 0.356121 507.944 0H533.806L533.804 0.00797286ZM427.901 93.6332H429.319C494.498 93.6332 493.792 0.350806 429.319 0.350806H375.834C374.772 0.350806 373.005 -0.00531523 373.005 1.41385C373.005 1.76732 373.711 2.4769 374.417 2.4769C382.209 4.95912 383.972 9.21662 384.333 14.5398V79.4628C383.982 85.1342 382.209 89.0302 374.417 91.5178C373.711 91.8766 373.005 92.2327 373.005 92.9396C373.005 94.0027 374.775 94.0027 375.834 94.0027H410.193V93.6439H427.901V93.6332ZM427.901 7.09584C432.687 7.11473 437.272 9.0262 440.657 12.414C444.042 15.8018 445.953 20.3915 445.974 25.1836V68.455C445.954 73.2473 444.043 77.8374 440.658 81.2253C437.273 84.6133 432.688 86.5245 427.901 86.5427H410.179V7.09584H427.901ZM292.938 59.5891H309.585L292.938 31.2137L291.165 28.3754L276.302 59.5891H292.938ZM292.938 0.00797286H304.617L352.082 83.723C353.143 85.8491 354.916 87.9752 357.042 89.0382C358.81 90.46 360.941 90.8188 363.065 91.5231C363.771 91.8819 364.477 92.238 364.477 92.9449C364.477 94.008 362.353 94.008 361.647 94.008H319.512C318.801 94.008 317.03 94.008 317.03 92.9449C317.03 92.238 317.381 91.8819 318.442 91.5231C320.218 90.8188 321.983 89.7531 322.341 87.627C323.047 85.1395 322.341 83.7283 320.924 80.5285C318.442 75.2133 315.616 70.2435 313.137 65.2791H273.454L273.101 65.986C272.748 67.4079 270.266 72.3643 267.792 77.6928C265.313 83.3669 263.899 84.7834 264.607 87.6217C265.316 89.7478 266.731 90.8109 268.854 91.5204C269.56 91.8792 270.269 92.2353 270.269 92.9396C270.269 94.0027 268.498 94.0027 267.439 94.0027H248.305C247.597 94.0027 245.471 94.0027 245.471 92.9396C245.471 92.2353 246.179 91.8766 246.888 91.5204C249.011 90.8135 250.784 90.4574 252.913 89.0356C254.681 87.9725 256.809 85.8464 257.868 83.7203L260.347 78.4051L287.625 21.9945L283.733 15.2547C280.193 9.57806 276.302 6.0328 272.753 3.90404C270.63 2.841 269.21 2.841 267.084 2.13141C266.372 1.77529 265.664 1.41917 266.022 0.709584C266.38 0 267.084 0.356121 267.442 0H292.944L292.938 0.00797286ZM176.045 62.074C184.193 64.907 194.112 65.614 201.902 63.1371L232.722 89.7398L235.201 91.8659C235.337 92.005 235.439 92.1727 235.501 92.3566C235.563 92.5406 235.583 92.7362 235.56 92.929C235.56 93.992 233.787 93.992 233.075 93.992H200.49L176.05 73.7755L156.21 57.8112V79.8057C156.568 85.1209 158.692 89.0249 166.129 91.4992C166.837 91.858 167.19 92.2114 167.19 92.9183C167.19 93.9814 165.417 93.9814 164.706 93.9814H121.849C120.787 93.9814 119.014 93.9814 119.014 92.9183C119.014 92.2114 119.725 91.8553 120.429 91.4992C128.922 88.6662 129.984 84.4087 130.347 77.6796V16.3178C129.992 9.9395 128.93 5.32321 120.429 2.49816C119.72 2.49816 119.014 1.78858 119.014 1.43511C119.014 0.0186034 120.787 0.372067 121.849 0.372067H190.922C194.674 0.355979 198.392 1.08008 201.865 2.50302C205.337 3.92596 208.496 6.01986 211.16 8.66517C213.825 11.3105 215.942 14.4554 217.393 17.9203C218.843 21.3852 219.598 25.1022 219.613 28.8591V29.0983C219.64 36.6818 216.659 43.9657 211.325 49.3493C205.99 54.7328 198.739 57.7755 191.166 57.8085H168.605C169.667 59.9346 172.146 60.6469 174.269 61.7126C174.98 61.7126 175.331 62.074 176.042 62.074H176.045ZM176.045 51.0794H178.893C188.1 51.0794 195.896 41.1453 195.896 28.3754C195.88 15.9617 188.087 6.0328 178.893 6.0328H156.207V51.0794H176.045ZM57.381 6.03545H37.1932V51.0821H60.574C70.1291 51.0821 77.5609 41.1479 77.5609 28.3781C77.5609 15.967 70.1291 6.03545 60.574 6.03545H57.381Z" fill="black"></path></g><defs><clipPath id="clip0_592_570"><rect width="605" height="94" fill="white"></rect></clipPath></defs></svg>