<svg xmlns="http://www.w3.org/2000/svg" width="605" height="345" viewBox="0 0 605 345" fill="none"><path d="M10.9803 218.992H2.48692C1.77825 218.992 0.00524902 218.992 0.00524902 217.929C0.00524902 217.225 0.360911 216.866 1.42259 216.51C9.21796 214.025 10.9777 209.773 10.9777 203.753V140.255C10.9777 134.578 9.20469 130.323 1.42259 127.498C0.360911 127.498 0.00524902 126.789 0.00524902 126.435C0.00524902 125.019 1.77825 125.372 2.48692 125.372H72.6134C88.5519 125.372 101.661 138.129 101.661 154.098C101.661 170.068 88.5519 182.809 72.6134 182.809H37.1932V204.444C37.5488 210.118 39.3165 214.012 46.7483 216.502C47.81 216.858 48.163 217.214 48.163 217.921C48.163 218.984 46.3926 218.984 45.684 218.984H10.9803V218.992ZM533.804 184.589H550.451L533.804 156.214L532.028 153.375L517.165 184.589H533.804ZM533.804 125.008H545.14L592.6 208.723C594.02 210.849 595.785 212.975 597.908 214.038C599.678 215.46 601.802 215.819 603.572 216.523C604.283 216.882 604.989 217.238 604.989 217.945C604.989 219.008 603.219 219.008 602.508 219.008H560.359C559.653 219.008 557.522 219.008 557.522 217.945C557.522 217.238 558.233 216.882 558.947 216.523C561.07 215.819 562.482 214.753 563.194 212.627C563.905 210.139 563.194 208.728 561.423 205.529C559.019 200.41 556.541 195.327 553.992 190.279H514.319L513.969 190.986C513.611 192.408 510.784 197.364 508.661 202.693C505.831 208.367 504.767 209.783 505.476 212.622C505.834 214.748 507.599 215.811 509.722 216.52C510.436 216.879 510.784 217.235 510.784 217.94C510.784 219.003 509.008 219.003 508.302 219.003H488.818C488.112 219.003 486.336 219.003 486.336 217.94C486.336 217.235 486.695 216.877 487.754 216.52C489.529 215.814 491.647 215.457 493.42 214.036C495.544 212.973 497.319 210.846 498.729 208.72L501.21 203.405L528.132 146.994L524.23 140.255C520.695 134.578 517.149 131.033 513.252 128.904C511.482 127.841 509.709 127.841 507.944 127.131C506.882 126.775 506.524 126.419 506.882 125.71C506.882 125 507.588 125.356 507.944 125H533.806L533.804 125.008ZM427.901 218.633H429.319C494.498 218.633 493.792 125.351 429.319 125.351H375.834C374.772 125.351 373.005 124.995 373.005 126.414C373.005 126.767 373.711 127.477 374.417 127.477C382.209 129.959 383.972 134.217 384.333 139.54V204.463C383.982 210.134 382.209 214.03 374.417 216.518C373.711 216.877 373.005 217.233 373.005 217.94C373.005 219.003 374.775 219.003 375.834 219.003H410.193V218.644H427.901V218.633ZM427.901 132.096C432.687 132.115 437.272 134.026 440.657 137.414C444.042 140.802 445.953 145.392 445.974 150.184V193.455C445.954 198.247 444.043 202.837 440.658 206.225C437.273 209.613 432.688 211.525 427.901 211.543H410.179V132.096H427.901ZM292.938 184.589H309.585L292.938 156.214L291.165 153.375L276.302 184.589H292.938ZM292.938 125.008H304.617L352.082 208.723C353.143 210.849 354.916 212.975 357.042 214.038C358.81 215.46 360.941 215.819 363.065 216.523C363.771 216.882 364.477 217.238 364.477 217.945C364.477 219.008 362.353 219.008 361.647 219.008H319.512C318.801 219.008 317.03 219.008 317.03 217.945C317.03 217.238 317.381 216.882 318.442 216.523C320.218 215.819 321.983 214.753 322.341 212.627C323.047 210.139 322.341 208.728 320.924 205.529C318.442 200.213 315.616 195.244 313.137 190.279H273.454L273.101 190.986C272.748 192.408 270.266 197.364 267.792 202.693C265.313 208.367 263.899 209.783 264.607 212.622C265.316 214.748 266.731 215.811 268.854 216.52C269.56 216.879 270.269 217.235 270.269 217.94C270.269 219.003 268.498 219.003 267.439 219.003H248.305C247.597 219.003 245.471 219.003 245.471 217.94C245.471 217.235 246.179 216.877 246.888 216.52C249.011 215.814 250.784 215.457 252.913 214.036C254.681 212.973 256.809 210.846 257.868 208.72L260.347 203.405L287.625 146.994L283.733 140.255C280.193 134.578 276.302 131.033 272.753 128.904C270.63 127.841 269.21 127.841 267.084 127.131C266.372 126.775 265.664 126.419 266.022 125.71C266.38 125 267.084 125.356 267.442 125H292.944L292.938 125.008ZM176.045 187.074C184.193 189.907 194.112 190.614 201.902 188.137L232.722 214.74L235.201 216.866C235.337 217.005 235.439 217.173 235.501 217.357C235.563 217.541 235.583 217.736 235.56 217.929C235.56 218.992 233.787 218.992 233.075 218.992H200.49L176.05 198.776L156.21 182.811V204.806C156.568 210.121 158.692 214.025 166.129 216.499C166.837 216.858 167.19 217.211 167.19 217.918C167.19 218.981 165.417 218.981 164.706 218.981H121.849C120.787 218.981 119.014 218.981 119.014 217.918C119.014 217.211 119.725 216.855 120.429 216.499C128.922 213.666 129.984 209.409 130.347 202.68V141.318C129.992 134.939 128.93 130.323 120.429 127.498C119.72 127.498 119.014 126.789 119.014 126.435C119.014 125.019 120.787 125.372 121.849 125.372H190.922C194.674 125.356 198.392 126.08 201.865 127.503C205.337 128.926 208.496 131.02 211.16 133.665C213.825 136.31 215.942 139.455 217.393 142.92C218.843 146.385 219.598 150.102 219.613 153.859V154.098C219.64 161.682 216.659 168.966 211.325 174.349C205.99 179.733 198.739 182.775 191.166 182.809H168.605C169.667 184.935 172.146 185.647 174.269 186.713C174.98 186.713 175.331 187.074 176.042 187.074H176.045ZM176.045 176.079H178.893C188.1 176.079 195.896 166.145 195.896 153.375C195.88 140.962 188.087 131.033 178.893 131.033H156.207V176.079H176.045ZM57.381 131.035H37.1932V176.082H60.574C70.1291 176.082 77.5609 166.148 77.5609 153.378C77.5609 140.967 70.1291 131.035 60.574 131.035H57.381Z" fill="black"></path></svg>