<svg xmlns="http://www.w3.org/2000/svg" width="238" height="24" viewBox="0 0 238 24" fill="none"><path d="M4.016 13.688V9.976H8.784C9.78667 9.976 10.5547 9.72 11.088 9.208C11.6427 8.696 11.92 8.00267 11.92 7.128C11.92 6.31733 11.6533 5.64533 11.12 5.112C10.5867 4.57867 9.81867 4.312 8.816 4.312H4.016V0.407999H9.392C10.8853 0.407999 12.1973 0.695999 13.328 1.272C14.4587 1.82667 15.344 2.60533 15.984 3.608C16.624 4.61067 16.944 5.76267 16.944 7.064C16.944 8.38667 16.624 9.54933 15.984 10.552C15.344 11.5333 14.448 12.3013 13.296 12.856C12.144 13.4107 10.7893 13.688 9.232 13.688H4.016ZM0.176 23V0.407999H5.2V23H0.176ZM12.464 23L5.424 13.272L10.032 12.024L18.416 23H12.464ZM19.6535 23V0.407999H24.6775V23H19.6535ZM33.6045 23V0.727999H38.6285V23H33.6045ZM26.5325 4.792V0.407999H45.7005V4.792H26.5325ZM45.3612 19.48L56.7212 3.896H62.8013L51.4092 19.48H45.3612ZM45.3612 23V19.48L48.6892 18.68H62.5133V23H45.3612ZM46.0012 4.728V0.407999H62.8013V3.896L59.4092 4.728H46.0012ZM71.3113 14.584L62.6073 0.407999H68.4313L75.1193 11.864H71.3753L78.0633 0.407999H83.7593L74.9913 14.584H71.3113ZM70.7033 23V12.28H75.7273V23H70.7033ZM87.0012 23L95.9612 0.407999H100.505L109.369 23H104.057L97.2732 4.248H99.0972L92.2172 23H87.0012ZM92.0892 18.904V14.808H104.409V18.904H92.0892ZM114.64 13.688V9.976H119.408C120.41 9.976 121.178 9.72 121.712 9.208C122.266 8.696 122.544 8.00267 122.544 7.128C122.544 6.31733 122.277 5.64533 121.744 5.112C121.21 4.57867 120.442 4.312 119.44 4.312H114.64V0.407999H120.016C121.509 0.407999 122.821 0.695999 123.952 1.272C125.082 1.82667 125.968 2.60533 126.608 3.608C127.248 4.61067 127.568 5.76267 127.568 7.064C127.568 8.38667 127.248 9.54933 126.608 10.552C125.968 11.5333 125.072 12.3013 123.92 12.856C122.768 13.4107 121.413 13.688 119.856 13.688H114.64ZM110.8 23V0.407999H115.824V23H110.8ZM123.088 23L116.048 13.272L120.656 12.024L129.04 23H123.088ZM140.904 23.352C139.218 23.352 137.65 23.064 136.2 22.488C134.77 21.8907 133.512 21.0587 132.424 19.992C131.357 18.9253 130.525 17.688 129.928 16.28C129.33 14.8507 129.032 13.3147 129.032 11.672C129.032 10.0293 129.33 8.504 129.928 7.096C130.525 5.66667 131.357 4.42933 132.424 3.384C133.49 2.33867 134.738 1.528 136.168 0.952C137.618 0.354666 139.186 0.0559998 140.872 0.0559998C142.664 0.0559998 144.253 0.343999 145.64 0.919998C147.048 1.496 148.274 2.28533 149.32 3.288L145.96 6.68C145.362 6.04 144.637 5.53867 143.784 5.176C142.952 4.81333 141.981 4.632 140.872 4.632C139.89 4.632 138.984 4.80267 138.152 5.144C137.341 5.464 136.637 5.93333 136.04 6.552C135.464 7.17067 135.005 7.91733 134.664 8.792C134.344 9.66667 134.184 10.6267 134.184 11.672C134.184 12.7387 134.344 13.7093 134.664 14.584C135.005 15.4587 135.464 16.2053 136.04 16.824C136.637 17.4427 137.341 17.9227 138.152 18.264C138.984 18.6053 139.89 18.776 140.872 18.776C142.024 18.776 143.026 18.5947 143.88 18.232C144.733 17.8693 145.469 17.368 146.088 16.728L149.48 20.12C148.392 21.1227 147.144 21.912 145.736 22.488C144.349 23.064 142.738 23.352 140.904 23.352ZM151.286 23V0.407999H156.31V23H151.286ZM165.27 23V0.407999H170.326V23H165.27ZM154.294 13.56V9.208H166.934V13.56H154.294ZM173.701 23V0.407999H178.725V23H173.701ZM189.156 23L180.452 0.407999H185.828L192.452 18.68H190.244L196.964 0.407999H202.276L193.476 23H189.156ZM203.968 23V0.407999H208.992V23H203.968ZM207.808 23V18.648H220.192V23H207.808ZM207.808 13.56V9.368H219.072V13.56H207.808ZM207.808 4.728V0.407999H220.032V4.728H207.808ZM228.918 23.352C227.062 23.352 225.462 23.0533 224.118 22.456C222.795 21.8373 221.579 20.9093 220.47 19.672L223.734 16.44C224.459 17.272 225.259 17.9227 226.134 18.392C227.03 18.84 228.064 19.064 229.238 19.064C230.304 19.064 231.126 18.872 231.702 18.488C232.299 18.104 232.598 17.5707 232.598 16.888C232.598 16.2693 232.406 15.768 232.022 15.384C231.638 15 231.126 14.6693 230.486 14.392C229.867 14.1147 229.174 13.848 228.406 13.592C227.659 13.336 226.912 13.048 226.166 12.728C225.419 12.3867 224.726 11.9707 224.086 11.48C223.467 10.968 222.966 10.3387 222.582 9.592C222.198 8.824 222.006 7.864 222.006 6.712C222.006 5.32533 222.336 4.13067 222.998 3.128C223.68 2.12533 224.619 1.368 225.814 0.855999C227.008 0.322666 228.384 0.0559998 229.942 0.0559998C231.52 0.0559998 232.96 0.333333 234.262 0.887999C235.584 1.44267 236.672 2.2 237.526 3.16L234.262 6.392C233.579 5.688 232.886 5.16533 232.182 4.824C231.499 4.48267 230.72 4.312 229.846 4.312C228.971 4.312 228.278 4.48267 227.766 4.824C227.254 5.144 226.998 5.61333 226.998 6.232C226.998 6.808 227.19 7.27733 227.574 7.64C227.958 7.98133 228.459 8.28 229.078 8.536C229.718 8.792 230.411 9.048 231.158 9.304C231.926 9.56 232.683 9.85867 233.43 10.2C234.176 10.5413 234.859 10.9787 235.478 11.512C236.118 12.024 236.63 12.6853 237.014 13.496C237.398 14.2853 237.59 15.2667 237.59 16.44C237.59 18.5947 236.822 20.2907 235.286 21.528C233.75 22.744 231.627 23.352 228.918 23.352Z" fill="#27292F"></path></svg>