<svg xmlns="http://www.w3.org/2000/svg" width="149" height="15" viewBox="0 0 149 15" fill="none"><path d="M2.76 8.68V6.36H5.74C6.36667 6.36 6.84667 6.2 7.18 5.88C7.52667 5.56 7.7 5.12667 7.7 4.58C7.7 4.07333 7.53333 3.65333 7.2 3.32C6.86667 2.98667 6.38667 2.82 5.76 2.82H2.76V0.379999H6.12C7.05333 0.379999 7.87333 0.559999 8.58 0.92C9.28667 1.26667 9.84 1.75333 10.24 2.38C10.64 3.00667 10.84 3.72667 10.84 4.54C10.84 5.36667 10.64 6.09333 10.24 6.72C9.84 7.33333 9.28 7.81333 8.56 8.16C7.84 8.50667 6.99333 8.68 6.02 8.68H2.76ZM0.36 14.5V0.379999H3.5V14.5H0.36ZM8.04 14.5L3.64 8.42L6.52 7.64L11.76 14.5H8.04ZM12.5334 14.5V0.379999H15.6734V14.5H12.5334ZM21.2528 14.5V0.579999H24.3928V14.5H21.2528ZM16.8328 3.12V0.379999H28.8128V3.12H16.8328ZM28.6008 12.3L35.7008 2.56H39.5008L32.3808 12.3H28.6008ZM28.6008 14.5V12.3L30.6808 11.8H39.3208V14.5H28.6008ZM29.0008 3.08V0.379999H39.5008V2.56L37.3808 3.08H29.0008ZM44.8195 9.24L39.3795 0.379999H43.0195L47.1995 7.54H44.8595L49.0395 0.379999H52.5995L47.1195 9.24H44.8195ZM44.4395 14.5V7.8H47.5795V14.5H44.4395ZM54.6258 14.5L60.2258 0.379999H63.0658L68.6058 14.5H65.2858L61.0458 2.78H62.1858L57.8858 14.5H54.6258ZM57.8058 11.94V9.38H65.5058V11.94H57.8058ZM71.8998 8.68V6.36H74.8798C75.5065 6.36 75.9865 6.2 76.3198 5.88C76.6665 5.56 76.8398 5.12667 76.8398 4.58C76.8398 4.07333 76.6732 3.65333 76.3398 3.32C76.0065 2.98667 75.5265 2.82 74.8998 2.82H71.8998V0.379999H75.2598C76.1932 0.379999 77.0132 0.559999 77.7198 0.92C78.4265 1.26667 78.9798 1.75333 79.3798 2.38C79.7798 3.00667 79.9798 3.72667 79.9798 4.54C79.9798 5.36667 79.7798 6.09333 79.3798 6.72C78.9798 7.33333 78.4198 7.81333 77.6998 8.16C76.9798 8.50667 76.1332 8.68 75.1598 8.68H71.8998ZM69.4998 14.5V0.379999H72.6398V14.5H69.4998ZM77.1798 14.5L72.7798 8.42L75.6598 7.64L80.8998 14.5H77.1798ZM88.3147 14.72C87.2614 14.72 86.2814 14.54 85.3747 14.18C84.4814 13.8067 83.6947 13.2867 83.0147 12.62C82.348 11.9533 81.828 11.18 81.4547 10.3C81.0814 9.40667 80.8947 8.44667 80.8947 7.42C80.8947 6.39333 81.0814 5.44 81.4547 4.56C81.828 3.66667 82.348 2.89333 83.0147 2.24C83.6814 1.58667 84.4614 1.08 85.3547 0.72C86.2614 0.346666 87.2414 0.16 88.2947 0.16C89.4147 0.16 90.408 0.34 91.2747 0.699999C92.1547 1.06 92.9214 1.55333 93.5747 2.18L91.4747 4.3C91.1014 3.9 90.648 3.58667 90.1147 3.36C89.5947 3.13333 88.988 3.02 88.2947 3.02C87.6814 3.02 87.1147 3.12667 86.5947 3.34C86.088 3.54 85.648 3.83333 85.2747 4.22C84.9147 4.60667 84.628 5.07333 84.4147 5.62C84.2147 6.16667 84.1147 6.76667 84.1147 7.42C84.1147 8.08667 84.2147 8.69333 84.4147 9.24C84.628 9.78667 84.9147 10.2533 85.2747 10.64C85.648 11.0267 86.088 11.3267 86.5947 11.54C87.1147 11.7533 87.6814 11.86 88.2947 11.86C89.0147 11.86 89.6414 11.7467 90.1747 11.52C90.708 11.2933 91.168 10.98 91.5547 10.58L93.6747 12.7C92.9947 13.3267 92.2147 13.82 91.3347 14.18C90.468 14.54 89.4614 14.72 88.3147 14.72ZM94.8037 14.5V0.379999H97.9437V14.5H94.8037ZM103.544 14.5V0.379999H106.704V14.5H103.544ZM96.6837 8.6V5.88H104.584V8.6H96.6837ZM108.813 14.5V0.379999H111.953V14.5H108.813ZM118.473 14.5L113.033 0.379999H116.393L120.533 11.8H119.153L123.353 0.379999H126.673L121.173 14.5H118.473ZM127.73 14.5V0.379999H130.87V14.5H127.73ZM130.13 14.5V11.78H137.87V14.5H130.13ZM130.13 8.6V5.98H137.17V8.6H130.13ZM130.13 3.08V0.379999H137.77V3.08H130.13ZM143.323 14.72C142.163 14.72 141.163 14.5333 140.323 14.16C139.497 13.7733 138.737 13.1933 138.043 12.42L140.083 10.4C140.537 10.92 141.037 11.3267 141.583 11.62C142.143 11.9 142.79 12.04 143.523 12.04C144.19 12.04 144.703 11.92 145.063 11.68C145.437 11.44 145.623 11.1067 145.623 10.68C145.623 10.2933 145.503 9.98 145.263 9.74C145.023 9.5 144.703 9.29333 144.303 9.12C143.917 8.94667 143.483 8.78 143.003 8.62C142.537 8.46 142.07 8.28 141.603 8.08C141.137 7.86667 140.703 7.60667 140.303 7.3C139.917 6.98 139.603 6.58667 139.363 6.12C139.123 5.64 139.003 5.04 139.003 4.32C139.003 3.45333 139.21 2.70667 139.623 2.08C140.05 1.45333 140.637 0.979999 141.383 0.659999C142.13 0.326666 142.99 0.16 143.963 0.16C144.95 0.16 145.85 0.333333 146.663 0.679999C147.49 1.02667 148.17 1.5 148.703 2.1L146.663 4.12C146.237 3.68 145.803 3.35333 145.363 3.14C144.937 2.92667 144.45 2.82 143.903 2.82C143.357 2.82 142.923 2.92667 142.603 3.14C142.283 3.34 142.123 3.63333 142.123 4.02C142.123 4.38 142.243 4.67333 142.483 4.9C142.723 5.11333 143.037 5.3 143.423 5.46C143.823 5.62 144.257 5.78 144.723 5.94C145.203 6.1 145.677 6.28667 146.143 6.5C146.61 6.71333 147.037 6.98667 147.423 7.32C147.823 7.64 148.143 8.05333 148.383 8.56C148.623 9.05333 148.743 9.66667 148.743 10.4C148.743 11.7467 148.263 12.8067 147.303 13.58C146.343 14.34 145.017 14.72 143.323 14.72Z" fill="#27292F"></path></svg>